<?xml version="1.0" encoding="utf-8"?>
<!-- Generator: Adobe Illustrator 19.0.0, SVG Export Plug-In . SVG Version: 6.00 Build 0)  -->
<svg version="1.1" id="Layer_1" xmlns="http://www.w3.org/2000/svg" xmlns:xlink="http://www.w3.org/1999/xlink" x="0px" y="0px"
	 width="610px" height="278px" viewBox="0 0 610 278" style="enable-background:new 0 0 610 278;" xml:space="preserve">
<style type="text/css">
	.st0{fill:none;stroke:#FFFFFF;stroke-width:2;stroke-miterlimit:10;}
	.st0{
			stroke-dasharray: 2500;
			stroke-dashoffset:0;
			-webkit-animation:dash 20s linear forwards;
			-moz-animation:dash 20s linear forwards;
			-o-animation:dash 20s linear forwards;
			animation:dash 20s linear forwards;
		}
		@keyframes dash {
			from{
				stroke-dashoffset: 2500;
			}
			to{
				stroke-dashoffset: 0;
			}
		}
		@-webkit-keyframes dash {
			from{
				stroke-dashoffset: 700;
			}
			to{
				stroke-dashoffset: 0;
			}
		}
		@-moz-keyframes dash {
			from{
				stroke-dashoffset: 2500;
			}
			to{
				stroke-dashoffset: 0;
			}
		}
		@-o-keyframes dash {
			from{
				stroke-dashoffset: 2500;
			}
			to{
				stroke-dashoffset: 0;
			}
		}
</style>
<g id="XMLID_1_">
	<g id="XMLID_35_">
		<path id="XMLID_36_" class="st0" d="M210.8,59.4c0,2.5-0.3,5.1-1,8.1c-0.7,2.9-1.3,4.4-1.9,4.4c-0.5,0-0.7-0.2-0.7-0.7
			c0-0.1,0-0.4,0.1-0.6c1.3-3.3,1.9-6.9,1.9-10.7c0-5.9-1.8-10.7-5.3-14.3c-3.5-3.6-8.2-5.4-14-5.4c-7.8,0-15.8,2.6-24.1,7.7
			c6.6,4.9,9.9,10.6,9.9,17.2c0,10.5-7.2,16.8-21.5,18.8c11.8,4.1,17.6,11.6,17.6,22.6c0,8.1-3.5,15.2-10.4,21.3
			c-6.9,6.1-15,9.1-24.2,9.1c-4.4,0-8-1.1-10.6-3.4c-2.6-2.3-3.9-5.4-3.9-9.3c0-6,2.8-12,8.3-17.9c5.5-5.9,11.1-8.9,16.7-8.9
			c3.1,0,5.7,1,7.6,2.9c2,2,3,4.5,3,7.5c0,1.8-0.6,4.1-1.7,6.9c-1.1,2.7-2.1,4.1-2.8,4.1c-0.5,0-0.8-0.2-0.8-0.6
			c0-0.2,0.1-0.5,0.3-0.8c2.5-3.6,3.7-6.8,3.7-9.7c0-2.7-0.9-4.9-2.6-6.5c-1.7-1.7-4-2.5-6.9-2.5c-5.3,0-10.5,2.8-15.6,8.4
			c-5.1,5.6-7.6,11.4-7.6,17.2c0,3.1,1.1,5.7,3.2,7.8c2.1,2.1,4.8,3.1,7.9,3.1c7.2,0,13.8-3.5,19.8-10.5c6-7,9-14.7,9-23.1
			c0-7.8-3.8-13.6-11.3-17.3l-4.1,0.5c-1.1,0.1-2.3,0.2-3.4,0.2c-3.6,0-5.4-0.6-5.4-1.8c0-0.8,1.5-1.3,4.5-1.3
			c2.1,0,4.9,0.4,8.4,1.3c4.9-1.5,8.8-4.2,11.6-7.9c2.9-3.8,4.3-8.1,4.3-13c0-4.7-1.8-9-5.5-12.8c-10.3,7.9-20.1,21.4-29.2,40.4
			c-5.6,11.7-10.8,20.1-15.4,25.3c-4.5,5.1-11,9.7-19.3,13.8c-9.9,4.8-18.7,7.2-26.4,7.2c-6.3,0-11.6-1.5-15.8-4.4
			c-4.2-2.9-6.3-6.5-6.3-10.9c0-2.4,0.7-4.5,2.2-6.2c1.4-1.7,3.2-2.6,5.1-2.6c2.9,0,4.3,1.6,4.3,4.8c0,1.6-0.5,3-1.5,4.1
			c-1,1.1-2.2,1.7-3.6,1.7c-2.5,0-3.6-1.3-3.5-3.8c0-1,0-1.6-0.3-1.6c-0.8,0-1.1,1.3-1.1,3.8c0,3.9,1.9,7.2,5.8,9.8
			c3.8,2.6,8.7,3.9,14.5,3.9c10.3,0,19.7-3.8,28.1-11.5c3.6-3.3,6.8-6.8,9.5-10.4c2.7-3.6,8.9-12.8,18.5-27.5
			c4.7-7,10.3-14.2,16.9-21.5c6.6-7.3,12.1-12.4,16.5-15.5C155,42.1,144.2,39,130,39c-19.9,0-37.2,7.2-52,21.6
			C66,72.4,59.9,83.5,59.9,93.9c0,5.3,1.7,9.5,5.1,12.6s8,4.7,13.8,4.7c9.5,0,19.3-4.6,29.4-13.7c10.1-9.1,15.2-18,15.2-26.6
			c0-6.8-3.5-10.3-10.5-10.3c-7,0-14.6,3.9-22.6,11.7c-8,7.8-12.1,15.2-12.1,22c0,1.7,0.6,3.2,1.7,4.4s2.5,1.8,4,1.8
			c0.8,0.1,1.2,0.3,1.2,0.6c0,0.4-0.4,0.6-1.3,0.6c-2.3,0-4.2-1-5.7-3.1c-1.6-2.1-2.3-4.6-2.3-7.5c0-7.3,4-14.4,12.1-21.4
			c8.1-7,16.4-10.4,24.9-10.4c8.1,0,12.2,3.8,12.2,11.3c0,9.2-5.2,18.4-15.5,27.8s-20.5,14-30.6,14c-6.6,0-11.8-2-15.8-5.9
			C59,102.6,57,97.3,57,90.7c0-13.4,7.5-25.5,22.6-36.6c15.1-11,31.8-16.5,50-16.5c13.7,0,25.4,3.1,35,9.3c8.6-5.4,17-8.1,25.1-8.1
			c6.3,0,11.4,1.9,15.3,5.7C208.8,48.3,210.8,53.2,210.8,59.4z"/>
		<path id="XMLID_38_" class="st0" d="M206.8,110.9c0,0.1-0.3,0.5-0.7,1.1l-3,4.2c-8.9,12.3-15.7,18.5-20.3,18.5
			c-2.2,0-4.1-0.8-5.6-2.4c-1.5-1.6-2.2-3.6-2.2-5.9c0-2.7,1.6-6.9,4.9-12.5l11-18.8c1.5,0.3,2.6,0.5,3.5,0.5c1.3,0,3.1-0.2,5.4-0.5
			l-16.1,26.4c-2.3,3.8-3.5,6.8-3.5,8.9c0,2.1,1.1,3.2,3.3,3.2c4.2,0,11.6-7.5,22.2-22.5c0.2-0.5,0.5-0.7,0.7-0.7
			C206.6,110.4,206.8,110.6,206.8,110.9z M205.7,81.6c0,1.7-0.7,3.2-2.1,4.6c-1.4,1.4-2.9,2.2-4.6,2.2c-2.1,0-3.2-1.1-3.2-3.2
			c0-1.6,0.7-3.1,2.2-4.5c1.5-1.4,3-2.2,4.6-2.2C204.7,78.5,205.7,79.6,205.7,81.6z"/>
		<path id="XMLID_41_" class="st0" d="M255.3,110.9c0,0.8-2.6,4-7.7,9.7c-5.7,6.3-13.1,12-22.2,16.9l-3.5,6.4
			c-6.4,11.8-13.6,21-21.6,27.4c-7.6,6.2-14.3,9.3-19.8,9.3c-2,0-3.7-0.6-5-1.8c-1.3-1.2-2-2.7-2-4.5c0-9.7,10.9-19.5,32.8-29.5
			c4.7-2.2,7.8-3.6,9.1-4.4l12-22.2c-5.2,6.9-8.9,11.4-11.1,13.4c-2.1,2-4.4,3-6.6,3c-2.5,0-4.5-1.1-6.3-3.3
			c-1.7-2.2-2.6-4.8-2.6-7.9c0-8.2,5.3-15.6,16-22.2c7.1-4.4,12.7-6.7,16.8-6.7c2.8,0,4.2,1.6,4.2,4.7c0,0.8-0.2,1.9-0.6,3l4-7.2
			c1.3,0.3,2.4,0.5,3.3,0.5c1.2,0,3-0.2,5.4-0.5c-0.3,0.4-2.4,4-6.2,10.6l-17.6,30.3c6.2-3.5,11.1-6.9,14.8-10.1
			c3.7-3.3,7.9-7.9,12.6-14.1c0.7-0.9,1.2-1.4,1.4-1.4C255.2,110.6,255.3,110.7,255.3,110.9z M214.7,141.6c-0.9,0.5-3.6,1.9-8,4
			c-21.5,10.7-32.3,20.2-32.3,28.7c0,1.5,0.5,2.7,1.6,3.7c1.1,1,2.5,1.5,4.2,1.5c5.2,0,10.2-2.7,15.2-8c4.9-5.3,11.1-14.8,18.5-28.6
			L214.7,141.6z M237.2,99.3c0-2.4-1.2-3.6-3.5-3.6c-4.2,0-9.9,4.2-16.9,12.7c-7,8.5-10.5,15.3-10.5,20.5c0,3.2,1.4,4.7,4.1,4.7
			c2.8,0,7.5-4.2,14.2-12.6C233,110.4,237.2,103.2,237.2,99.3z"/>
		<path id="XMLID_45_" class="st0" d="M444,59.4c0,2.5-0.3,5.1-1,8.1c-0.7,2.9-1.3,4.4-1.9,4.4c-0.5,0-0.7-0.2-0.7-0.7
			c0-0.1,0-0.4,0.1-0.6c1.3-3.3,1.9-6.9,1.9-10.7c0-5.9-1.8-10.7-5.3-14.3c-3.5-3.6-8.2-5.4-14-5.4c-7.8,0-15.8,2.6-24.1,7.7
			c6.6,4.9,9.9,10.6,9.9,17.2c0,10.5-7.2,16.8-21.5,18.8c11.8,4.1,17.6,11.6,17.6,22.6c0,8.1-3.5,15.2-10.4,21.3
			c-6.9,6.1-15,9.1-24.3,9.1c-4.4,0-8-1.1-10.6-3.4c-2.6-2.3-3.9-5.4-3.9-9.3c0-6,2.8-12,8.3-17.9c5.5-5.9,11.1-8.9,16.7-8.9
			c3.1,0,5.7,1,7.6,2.9c2,2,3,4.5,3,7.5c0,1.8-0.6,4.1-1.7,6.9c-1.1,2.7-2.1,4.1-2.8,4.1c-0.5,0-0.8-0.2-0.8-0.6
			c0-0.2,0.1-0.5,0.3-0.8c2.5-3.6,3.7-6.8,3.7-9.7c0-2.7-0.9-4.9-2.6-6.5c-1.7-1.7-4-2.5-6.9-2.5c-5.3,0-10.5,2.8-15.6,8.4
			c-5.1,5.6-7.6,11.4-7.6,17.2c0,3.1,1.1,5.7,3.2,7.8c2.1,2.1,4.8,3.1,7.9,3.1c7.2,0,13.8-3.5,19.8-10.5c6-7,9-14.7,9-23.1
			c0-7.8-3.8-13.6-11.3-17.3l-4.1,0.5c-1.1,0.1-2.3,0.2-3.4,0.2c-3.6,0-5.4-0.6-5.4-1.8c0-0.8,1.5-1.3,4.5-1.3
			c2.1,0,4.9,0.4,8.4,1.3c4.9-1.5,8.8-4.2,11.6-7.9c2.9-3.8,4.3-8.1,4.3-13c0-4.7-1.8-9-5.5-12.8c-10.3,7.9-20.1,21.4-29.2,40.4
			c-5.6,11.7-10.8,20.1-15.4,25.3c-4.5,5.1-11,9.7-19.3,13.8c-9.9,4.8-18.7,7.2-26.4,7.2c-6.3,0-11.6-1.5-15.8-4.4
			c-4.2-2.9-6.3-6.5-6.3-10.9c0-2.4,0.7-4.5,2.2-6.2c1.4-1.7,3.2-2.6,5.1-2.6c2.9,0,4.3,1.6,4.3,4.8c0,1.6-0.5,3-1.5,4.1
			c-1,1.1-2.2,1.7-3.6,1.7c-2.5,0-3.6-1.3-3.5-3.8c0-1,0-1.6-0.3-1.6c-0.8,0-1.1,1.3-1.1,3.8c0,3.9,1.9,7.2,5.8,9.8
			s8.7,3.9,14.6,3.9c10.3,0,19.7-3.8,28.1-11.5c3.6-3.3,6.8-6.8,9.5-10.4c2.7-3.6,8.9-12.8,18.5-27.5c4.7-7,10.3-14.2,16.8-21.5
			c6.6-7.3,12.1-12.4,16.5-15.5c-7.5-6.3-18.3-9.4-32.4-9.4c-19.9,0-37.2,7.2-52,21.6c-12.1,11.8-18.1,22.9-18.1,33.3
			c0,5.3,1.7,9.5,5.1,12.6s8,4.7,13.8,4.7c9.5,0,19.3-4.6,29.4-13.7c10.1-9.1,15.2-18,15.2-26.6c0-6.8-3.5-10.3-10.6-10.3
			s-14.6,3.9-22.6,11.7c-8,7.8-12.1,15.2-12.1,22c0,1.7,0.6,3.2,1.7,4.4s2.5,1.8,4,1.8c0.8,0.1,1.2,0.3,1.2,0.6
			c0,0.4-0.4,0.6-1.3,0.6c-2.3,0-4.2-1-5.7-3.1c-1.6-2.1-2.3-4.6-2.3-7.5c0-7.3,4-14.4,12.1-21.4c8.1-7,16.4-10.4,24.8-10.4
			c8.1,0,12.2,3.8,12.2,11.3c0,9.2-5.2,18.4-15.5,27.8c-10.3,9.3-20.5,14-30.6,14c-6.6,0-11.8-2-15.8-5.9c-3.9-3.9-5.9-9.2-5.9-15.8
			c0-13.4,7.5-25.5,22.6-36.6c15.1-11,31.8-16.5,50-16.5c13.7,0,25.4,3.1,35,9.3c8.6-5.4,17-8.1,25.1-8.1c6.3,0,11.4,1.9,15.3,5.7
			C442.1,48.3,444,53.2,444,59.4z"/>
		<path id="XMLID_47_" class="st0" d="M440,110.9c0,0.1-0.3,0.5-0.7,1.1l-3,4.2c-8.9,12.3-15.7,18.5-20.3,18.5
			c-2.2,0-4.1-0.8-5.6-2.4c-1.5-1.6-2.2-3.6-2.2-5.9c0-2.7,1.6-6.9,4.9-12.5l11-18.8c1.5,0.3,2.6,0.5,3.5,0.5c1.3,0,3.1-0.2,5.4-0.5
			l-16.1,26.4c-2.3,3.8-3.5,6.8-3.5,8.9c0,2.1,1.1,3.2,3.3,3.2c4.2,0,11.6-7.5,22.2-22.5c0.2-0.5,0.5-0.7,0.7-0.7
			C439.9,110.4,440,110.6,440,110.9z M439,81.6c0,1.7-0.7,3.2-2.1,4.6c-1.4,1.4-2.9,2.2-4.6,2.2c-2.1,0-3.2-1.1-3.2-3.2
			c0-1.6,0.7-3.1,2.2-4.5c1.5-1.4,3-2.2,4.6-2.2C438,78.5,439,79.6,439,81.6z"/>
		<path id="XMLID_50_" class="st0" d="M480.5,110.9c0,0.4-1.4,2.1-4.3,5.2c-3.6,4-7,6-10.1,6c-3.6,0-5.4-2.1-5.4-6.2
			c0-1.3,0.3-3,0.8-5c-3,2.6-5.4,5.2-7.3,7.7c-1.9,2.5-5.1,7.7-9.7,15.6c-2.5-0.2-4-0.3-4.4-0.3c-0.2,0-1.6,0.1-4.3,0.3l11.6-18.8
			c5.8-9.4,8.7-15.3,8.7-17.6c0-1.3-0.5-2-1.6-2c-2.6,0-7.4,5.1-14.4,15.3c-0.4,0.7-0.8,1-1.1,1c-0.2,0-0.3-0.2-0.3-0.4
			c0-0.2,0.1-0.4,0.3-0.6l1.3-1.8c7.3-9.7,12.2-14.5,14.8-14.5c3.8,0,5.7,2.4,5.7,7.3c0,3.6-1.9,8.4-5.8,14.4c2.5-2.8,4.8-5.1,7-6.9
			c1.8-4.2,4-7.7,6.7-10.5c2.7-2.8,5.1-4.2,7.2-4.2c1.5,0,2.2,0.6,2.2,1.9c0,2.3-3.3,5.5-9.8,9.7c-1,0.7-2.6,1.6-4.7,2.9l-0.8,0.7
			c-0.7,2.2-1,4-1,5.4c0,4,1.5,5.9,4.5,5.9c3.7,0,7.7-3.1,12.1-9.2c0.9-1,1.5-1.6,1.8-1.6C480.4,110.4,480.5,110.6,480.5,110.9z"/>
		<path id="XMLID_52_" class="st0" d="M530.2,110.9c0,1-3.4,5.6-10.3,13.8c-5.6,6.7-10,10.1-13.2,10.1c-2.2,0-3.9-0.8-5.3-2.4
			c-1.4-1.6-2.1-3.7-2.1-6.1c0-2.5,0.8-5.3,2.3-8.3c-4.7,6.6-8.3,11.1-10.8,13.4c-2.5,2.3-4.9,3.5-7.3,3.5c-2.5,0-4.6-1.1-6.3-3.2
			c-1.7-2.1-2.5-4.9-2.5-8.1c0-9.1,6.4-17.1,19.2-24.1c5.6-3.1,10.1-4.7,13.6-4.7c2.9,0,4.4,1.4,4.4,4.2c0,0.8-0.2,1.9-0.6,3.2
			l3.6-6.9c1.4,0.3,2.7,0.5,3.8,0.5c1.3,0,2.9-0.2,5-0.5L511,115.9c-4.3,7.3-6.5,12.1-6.5,14.4c0,2.2,0.9,3.3,2.8,3.3
			c1.9,0,4.9-2.2,9.1-6.5c4.2-4.3,8.4-9.7,12.7-16c0.3-0.5,0.5-0.7,0.8-0.7C530.1,110.4,530.2,110.6,530.2,110.9z M510.7,99.1
			c0-2.3-1.1-3.5-3.2-3.5c-4.3,0-10,4.2-17.1,12.7c-7.1,8.5-10.6,15.4-10.6,20.6c0,3.1,1.4,4.6,4.1,4.6c3.3,0,8.9-5.4,16.9-16.2
			C507.5,108.5,510.7,102.4,510.7,99.1z"/>
		<path id="XMLID_55_" class="st0" d="M567.5,60.7c-19.8,33-31.4,52.4-34.7,58.2c-3.3,5.8-4.9,9.7-4.9,11.5c0,2.1,0.9,3.2,2.7,3.2
			c4,0,11.3-7.5,21.8-22.5c0.2-0.5,0.5-0.7,0.9-0.7c0.2,0,0.3,0.2,0.3,0.4c0,0.3-0.2,0.7-0.7,1.1l-3,4.2
			c-8.9,12.3-15.5,18.5-19.8,18.5c-2,0-3.7-0.8-5-2.3c-1.3-1.5-1.9-3.5-1.9-5.8c0-2.6,0.6-5.1,1.8-7.5c1.2-2.4,5.3-9.5,12.3-21.1
			c8.5-14.2,15.7-26.5,21.6-37c1.4,0.4,2.7,0.6,3.8,0.6C564.4,61.5,566,61.3,567.5,60.7z"/>
	</g>
	<g id="XMLID_6_">
		<path id="XMLID_7_" class="st0" d="M205.2,201c1.9,0.5,3.3,1.3,4.3,2.2c1.4,1.4,2,3,2,4.8c0,1.5-0.5,3-1.6,4.6
			c-1.1,1.6-3,3.4-5.9,5.6c2.4,0.2,4.2,0.6,5.4,1.2c1.1,0.6,1.9,1.3,2.4,2.2c0.5,0.9,0.7,2.4,0.7,4.6v9.4c-6.5,0.7-12,3-16.6,6.8
			c-1.6-1.1-3.1-1.9-4.5-2.3c-2.3-0.8-4.8-1.1-7.4-1.1c-3.2,0-5.8,0.7-7.8,2c-1.3,0.9-2,1.8-2,2.6c0,0.3,0.2,0.8,0.6,1.5
			c0.4,0.6,0.6,1.2,0.6,1.5c0,0.4-0.1,0.7-0.4,1s-0.6,0.4-0.9,0.4c-0.5,0-1-0.2-1.4-0.7c-0.4-0.5-0.6-1.1-0.6-1.9
			c0-0.7,0.3-1.5,0.8-2.4c0.5-0.9,1.6-2.2,3.3-3.9s2.7-2.9,3.2-3.7c0.5-0.8,0.7-1.5,0.7-2.2c0-0.8-0.3-1.5-0.8-2
			c-0.5-0.5-1.2-0.8-2-0.8c-0.7,0-1.4,0.2-1.8,0.6c-0.5,0.4-0.8,1.1-1,2.1l-1,0c0-0.3,0-0.6,0-0.8c0-1.5,0.5-2.8,1.5-3.8
			c1-1,2.4-1.5,4.1-1.5c0.2,0,0.5,0,0.9,0c0-1.8-0.3-3.1-0.8-3.9c-0.8-1.3-2-1.9-3.7-1.9c-1,0-1.9,0.3-2.7,0.8
			c-0.4,0.3-0.8,0.8-1.3,1.7l-1.1-0.4c0.2-1.7,0.9-3.1,2-4.2c1.2-1,2.7-1.6,4.5-1.6c0.7,0,1.5,0.1,2.5,0.2c0.1-2.6,0.3-4.4,0.7-5.6
			c0.4-1.2,1.1-2.2,2-3.2c0.9-1,2.7-2.3,5.4-4.1c-2.5,0.8-4.6,1.2-6.3,1.2c-1.1,0-2.6-0.2-4.4-0.7c-1-0.2-1.8-0.4-2.2-0.4
			c-0.8,0-1.5,0.3-2.1,0.8c-0.6,0.6-0.9,1.5-1.1,3h-1c0.1-1.7,0.4-3.1,0.9-4.2s1.4-2,2.6-2.7c1.1-0.7,2.4-1,3.6-1
			c0.9,0,2.5,0.3,4.7,0.8s4,0.8,5.4,0.8c1,0,2-0.1,2.9-0.3c0.9-0.2,2.2-0.7,3.7-1.3l0.6,1.2c-3.9,1.9-6.6,3.8-7.9,5.6
			c-1.3,1.8-2,4.2-2,7.2v11.2c0,2.5-0.3,4.4-0.8,5.7s-1.6,2.9-3.3,4.7c3.2-1.4,5.4-2.8,6.5-4.4c1.1-1.6,1.7-3.9,1.7-6.9v-8.1
			c0-3.8,0.3-6.4,1-7.9c0.7-1.5,1.9-2.9,3.6-4C195.5,204.3,199.3,202.9,205.2,201z M200.5,203.7c-2,0.9-3.3,1.6-4,2.3
			c-0.7,0.6-1.2,1.4-1.4,2.2c-0.3,0.8-0.4,2.3-0.4,4.3v11.2c0,2-0.2,3.5-0.5,4.5c-0.4,1-1.1,2-2.1,3c-1,1-3.1,2.4-6.3,4.3
			c1.7-0.3,3.3-0.4,4.8-0.4c2.5,0,4.9,0.3,7.1,1v-22.8h1.2v7.1c2.5-1.5,4.4-3.1,5.6-4.7c1.2-1.6,1.8-3.3,1.8-5.2
			c0-1.5-0.5-2.8-1.4-3.9C203.9,205.5,202.4,204.6,200.5,203.7z M198.8,224.4c1.5,0.5,2.8,0.8,4,0.8s2.6-0.3,4-0.8
			c0-1.3-0.3-2.3-0.8-3c-0.6-0.8-1.6-1.5-3.2-2.2c-2,1.3-3.3,2.2-4,2.5V224.4z M206.9,225.6c-1.5,0.5-2.9,0.8-4,0.8
			c-1.3,0-2.6-0.3-4-0.8v4.9c1.4-0.5,2.7-0.8,3.9-0.8c1.2,0,2.6,0.3,4.2,0.8V225.6z M206.9,231.7c-1.7-0.6-3.1-0.9-4.3-0.9
			c-1.2,0-2.5,0.3-3.8,0.9v4.9c0.8,0.3,1.5,0.7,2.2,1.2c1.9-1,3.8-1.7,5.9-2.3V231.7z"/>
		<path id="XMLID_13_" class="st0" d="M217.2,218.1l5.7-4.8c1.6,1.1,2.6,2,3,2.8c0.5,0.8,0.7,1.9,0.7,3.2v0.6l8.2-6.6
			c2.8,3,4.3,6.2,4.3,9.5c0,1.8-0.5,3.6-1.4,5.5c-0.9,1.8-2.4,3.5-4.4,5.2c-2,1.6-5.2,3.8-9.6,6.4c-1.9,1.2-3.1,1.9-3.5,2.2
			c-0.8,0.6-1.4,1.3-1.8,1.9c-0.3,0.4-0.4,0.9-0.4,1.5c0,0.9,0.5,1.8,1.4,2.6c0.9,0.8,2.1,1.2,3.7,1.2c1.1,0,2-0.2,2.7-0.6
			c0.3-0.2,0.7-0.6,1-1.2c0.3-0.6,0.6-1,0.8-1.2c0.2-0.2,0.5-0.3,0.8-0.3c0.4,0,0.7,0.1,0.9,0.3c0.2,0.2,0.3,0.5,0.3,0.8
			c0,0.6-0.4,1.2-1.3,1.7c-1.3,0.9-3,1.4-5,1.4c-2.1,0-3.7-0.5-4.8-1.5c-1.1-1-1.7-2.2-1.7-3.5c0-1.3,0.6-2.7,1.9-3.9
			c0.6-0.6,1-1.1,1.1-1.3c0.4-0.7,0.7-1.3,0.8-1.9c0.1-0.6,0.2-1.4,0.2-2.5v-13.1c0-1.8-0.2-3.1-0.6-3.7c-0.3-0.5-0.7-0.8-1.1-0.8
			c-0.3,0-0.7,0.2-1.2,0.7c-0.1,0.1-0.2,0.2-0.4,0.3L217.2,218.1z M226.7,221.2v15.5c2.6-1.9,4.4-3.8,5.5-5.8c1.1-2,1.6-3.9,1.6-5.8
			c0-2.5-1-4.9-3-7.2L226.7,221.2z"/>
		<path id="XMLID_16_" class="st0" d="M272.7,201.6l12.3,4.1l0.9-1.6c0.3-0.6,0.6-0.9,0.7-1.1c0.1-0.1,0.3-0.2,0.5-0.2
			s0.3,0.1,0.5,0.2c0.1,0.1,0.2,0.3,0.2,0.4c0,0.3-0.2,0.8-0.7,1.5l-6,10.1l4.7-0.3c1.4-0.1,3.1,0.1,5,0.6c1.9,0.5,3.5,1.2,4.9,2.1
			c1.4,1,2.4,2.1,3.2,3.4c0.8,1.3,1.2,2.7,1.2,4.3c0,2.9-1.2,5.7-3.6,8.5c-2.4,2.8-6.7,5.7-12.9,8.8c-2.2-0.8-4.7-1.6-7.6-2.5
			c-5.1,2.3-9.3,3.5-12.6,3.5c-2.4,0-4.2-0.5-5.4-1.5c-1.3-1-1.9-2.2-1.9-3.6c0-1.4,0.8-2.8,2.3-4c1.5-1.2,3.8-1.8,6.8-1.8
			c1.2,0,2.7,0.1,4.4,0.4l2.2-3.9l-4,0.3c-0.9,0-2.2-0.1-3.8-0.4c-1.6-0.3-2.9-0.7-4-1.4c-1-0.6-1.8-1.4-2.3-2.4
			c-0.5-0.9-0.8-1.9-0.8-2.9c0-1.6,0.6-3.1,1.7-4.3c0.7-0.8,1.9-1.5,3.6-2.2l0-0.3c0-1.7,0.8-3.6,2.3-5.8
			C265.9,207.5,268.7,204.8,272.7,201.6z M274.1,239.3c-4.5-1.5-8.3-2.3-11.2-2.3c-1.5,0-2.7,0.3-3.6,1c-0.6,0.4-0.9,1-0.9,1.6
			c0,0.7,0.3,1.2,0.9,1.6c0.9,0.7,2.3,1,4.1,1C266.3,242.2,269.8,241.3,274.1,239.3z M276.8,220.2c-2.4,0.3-4.7,0.5-6.9,0.5
			c-2.5,0-4.2-0.3-5.3-0.9c-1-0.6-1.8-1.5-2.3-2.7c-1.3,0.8-2,1.9-2,3.1c0,1.1,0.5,2.1,1.5,2.8c1.3,0.9,3.7,1.4,6.9,1.4
			c1.5,0,3.5-0.1,5.9-0.4L276.8,220.2z M282.5,210.1c-2.9-1.4-5.1-2.4-6.7-2.9c-1.6-0.5-3-0.7-4.2-0.7c-1.7,0-3.1,0.5-4.2,1.4
			c-1.1,1-1.6,2.1-1.6,3.4c0,1.3,0.5,2.3,1.4,3.1c0.9,0.8,2.3,1.2,4.2,1.2c1.2,0,4-0.2,8.3-0.5L282.5,210.1z M270.7,233.3
			c1.7,0.4,3.1,0.7,4.2,1c1.1,0.3,3,1,5.8,1.9c4.4-2,6.6-4,6.6-5.8c0-0.6-0.3-1.1-0.8-1.6c-0.5-0.5-1.2-0.7-2-0.7
			c-1,0-2.2,0.1-3.6,0.3c-4,0.4-6.6,0.6-7.8,0.6L270.7,233.3z M276.1,223.9c4.4-0.4,7.4-0.6,9.1-0.6c2.3,0,4.1,0.5,5.3,1.6
			s1.8,2.3,1.8,3.8c0,1.3-0.6,2.5-1.8,3.7c-1.2,1.2-3.8,2.7-7.7,4.5l5.6,1.5c2.4-1.5,4.2-3.1,5.5-4.8c1.3-1.7,1.9-3.6,1.9-5.7
			c0-1.3-0.4-2.7-1.2-4c-0.8-1.3-2.1-2.3-3.7-3.1c-1.7-0.8-3.6-1.2-5.8-1.2c-1.8,0-4,0.2-6.8,0.5L276.1,223.9z"/>
		<path id="XMLID_23_" class="st0" d="M324.1,217.3v20.5c-2.7,1.1-4.7,2-5.9,2.7c-0.9,0.5-1.8,1.2-2.7,2c-2.6-1.6-4.8-2.7-6.6-3.3
			c-1.3-0.5-2.8-0.7-4.5-0.8l-0.3-0.5c0.7-0.6,1.1-1.1,1.3-1.6c0.3-0.6,0.4-1.7,0.4-3.1v-15c3.3-1.1,6.2-2.7,8.6-4.7
			C317,215,320.3,216.4,324.1,217.3z M311.4,235.1l7.1,2.9v-17.4c-2.2-1-3.8-1.7-4.8-2.1c-0.7-0.2-1.4-0.4-2.4-0.6V235.1z"/>
		<path id="XMLID_26_" class="st0" d="M348.3,213.3l4.9,4.1l-2.2,2v14.4c0,1.7,0.2,2.8,0.7,3.6c0.3,0.5,0.6,0.7,1,0.7
			c0.3,0,0.8-0.3,1.5-0.9l0.7,0.8l-5.8,4.5c-1.5-1-2.4-1.9-2.8-2.7c-0.4-0.8-0.7-2.1-0.7-3.9c-2.8,1.8-5.7,4-8.7,6.6
			c-1.8-1.4-2.9-2.6-3.5-3.7c-0.5-1-0.8-2.4-0.8-4.1v-13.5c0-0.9-0.1-1.6-0.3-1.9c-0.3-0.5-0.7-0.8-1.2-0.8c-0.4,0-1,0.3-1.7,0.9
			l-0.7-0.8l6.5-5.3l5,4.1l-2.1,1.8v14.5c0,1.1,0.1,1.9,0.4,2.4c0.3,0.5,0.9,1.1,2,1.9l5-3.7v-14.9l-1.9-2L348.3,213.3z"/>
		<path id="XMLID_28_" class="st0" d="M394.1,214.9l0.8,0.7c-1,0.9-1.8,1.6-2.1,2.2c-0.4,0.5-0.6,1.1-0.7,1.6
			c-0.1,0.5-0.2,1.7-0.2,3.4v11.4c0,1.5,0.1,2.5,0.4,3c0.3,0.5,0.6,0.7,0.8,0.7c0.4,0,1-0.4,1.9-1.1l0.7,0.8l-5.9,4.8
			c-1.4-1.1-2.2-1.9-2.6-2.6c-0.6-1-0.9-2.1-0.9-3.3v-16.5l-2.7-2.4l-4.3,4.1v14.8l2.1,2.2l-4.8,3.7l-4.9-3.7l2-2.2V223
			c0-1.6-0.1-2.6-0.4-3.1c-0.3-0.6-1.1-1.4-2.4-2.2l-4.3,3.6v15.2l2.1,2.2l-4.8,3.7l-4.9-3.7l2.1-2.2V222c0-1.5-0.2-2.6-0.6-3.3
			c-0.3-0.5-0.6-0.8-0.8-0.8c-0.3,0-0.9,0.4-1.8,1.1l-0.7-0.8l5.7-4.8c1.2,0.9,2.1,1.6,2.5,2.1c0.4,0.6,0.8,1.2,0.9,1.8
			c0.1,0.5,0.2,1.4,0.2,2.8l8.2-6.8c1.8,1.4,3,2.6,3.5,3.5s0.9,2.1,1,3.6l7.6-7.1l4.5,4.2L394.1,214.9z"/>
		<path id="XMLID_30_" class="st0" d="M410.6,213.3l7.7,9l-12.3,8.6v5l6.3,2.5l4.3-2.9l0.6,0.8l-8.8,6.2c-1.8-1-3.3-1.7-4.5-2.1
			c-1.2-0.4-2.8-0.9-5-1.3v-0.7c0.6-0.4,1-0.8,1.2-1.4c0.2-0.5,0.3-1.7,0.3-3.5v-15.6c1.7-0.6,3.1-1.2,4.3-1.7
			C405.7,215.8,407.6,214.9,410.6,213.3z M406.5,216.5l-0.4,0.2v12.4l7.2-5L406.5,216.5z"/>
		<path id="XMLID_33_" class="st0" d="M438,213.3l3.7,4.1l2.7-2.6l0.8,0.7c-1.3,1.2-2.1,2.1-2.3,2.7c-0.4,0.8-0.6,1.9-0.6,3.3v13
			c0,1.2,0.2,2.1,0.6,2.7c0.2,0.4,0.5,0.6,0.8,0.6c0.3,0,0.9-0.4,1.8-1.1l0.7,0.8l-5.9,4.8c-1.5-1.1-2.5-2.1-2.9-3
			c-0.4-0.9-0.6-2.3-0.6-4.3v-15l-2.4-2.6l-4.7,3.7v15.2l2.1,2l-4.8,3.9l-4.9-3.9l2.1-2v-14c0-2-0.2-3.3-0.6-4
			c-0.3-0.5-0.6-0.7-0.9-0.7c-0.4,0-0.9,0.4-1.6,1.1l-0.7-0.8l5.8-4.8c1.6,1.2,2.6,2.1,3,2.8c0.4,0.7,0.6,1.7,0.6,2.9v1L438,213.3z"
			/>
	</g>
</g>
</svg>
