<?xml version="1.0" encoding="utf-8"?>
<!-- Generator: Adobe Illustrator 19.0.0, SVG Export Plug-In . SVG Version: 6.00 Build 0)  -->
<svg version="1.1" id="Layer_1" xmlns="http://www.w3.org/2000/svg" xmlns:xlink="http://www.w3.org/1999/xlink" x="0px" y="0px"
	 width="610px" height="278px" viewBox="0 0 610 278" style="enable-background:new 0 0 610 278;" xml:space="preserve">
<style type="text/css">
	.st0{fill:url(#XMLID_3_);}
	.st1{fill:url(#XMLID_4_);}
	.st2{fill:url(#XMLID_57_);stroke:url(#XMLID_58_);stroke-miterlimit:10;}
	.st3{fill:url(#XMLID_59_);stroke:url(#XMLID_60_);stroke-miterlimit:10;}
	.st4{fill:url(#XMLID_61_);stroke:url(#XMLID_62_);stroke-miterlimit:10;}
	.st5{fill:url(#XMLID_63_);stroke:url(#XMLID_64_);stroke-miterlimit:10;}
	.st6{fill:url(#XMLID_65_);stroke:url(#XMLID_66_);stroke-miterlimit:10;}
	.st7{fill:url(#XMLID_67_);stroke:url(#XMLID_68_);stroke-miterlimit:10;}
	.st8{fill:url(#XMLID_69_);stroke:url(#XMLID_70_);stroke-miterlimit:10;}
	.st9{fill:url(#XMLID_71_);stroke:url(#XMLID_72_);stroke-miterlimit:10;}
	.st10{fill:url(#XMLID_73_);stroke:url(#XMLID_74_);stroke-miterlimit:10;}
	.st11{fill:url(#XMLID_75_);stroke:url(#XMLID_76_);stroke-miterlimit:10;}
	.st12{fill:url(#XMLID_77_);stroke:url(#XMLID_78_);stroke-miterlimit:10;}
	.st13{fill:url(#XMLID_79_);stroke:url(#XMLID_80_);stroke-miterlimit:10;}
	.st14{fill:url(#XMLID_81_);stroke:url(#XMLID_82_);stroke-miterlimit:10;}
	.st15{fill:url(#XMLID_83_);stroke:url(#XMLID_84_);stroke-miterlimit:10;}
	.st16{fill:url(#XMLID_85_);stroke:url(#XMLID_86_);stroke-miterlimit:10;}
	.st17{fill:url(#XMLID_87_);stroke:url(#XMLID_88_);stroke-miterlimit:10;}
</style>
<symbol  id="Florid_Vector_Pack_04" viewBox="-199.4 -51 398.8 102.1">
	<linearGradient id="XMLID_3_" gradientUnits="userSpaceOnUse" x1="-199.404" y1="1.173999e-003" x2="-1.7562" y2="1.173999e-003">
		<stop  offset="0" style="stop-color:#C49A6C"/>
		<stop  offset="1" style="stop-color:#FAF6F1"/>
		<stop  offset="1" style="stop-color:#FFFFFF"/>
	</linearGradient>
	<path id="XMLID_150_" class="st0" d="M-48,6.8L-48,6.8l-0.3,0.5c-1.7,3.2-2,6.2-2.5,6.2c-0.5,0.1-1.1-3.4,0.9-7.1
		c0.1-0.2,0.2-0.4,0.3-0.6v0c3.4-5,9-7.5,14.4-8.6C-40.5-1.1-45.6,2-48,6.8z M-72.3-30.5L-72.3-30.5l-0.2-0.2l-0.4-0.4
		c-0.6-0.6-1.2-1.1-1.8-1.7c-2.5-2.2-5.2-4.2-8-5.9c-5.6-3.5-11.7-6.4-18-8.6c6.4,1.9,12.6,4.5,18.5,7.8c2.9,1.7,5.8,3.5,8.4,5.7
		c0.7,0.5,1.3,1.1,1.9,1.7l0.4,0.3c0.4-0.1,0.9-0.2,1.3-0.2c1.8-0.2,3.6,0,5.3,0.5c6.8,2.3,11.5,7.8,15.2,13.3
		c0.2,0.3,0.5,0.8,0.7,0.9l0.9,0.8l1.9,1.7c1.2,1.1,2.5,2.3,3.7,3.4c2.4,2.3,4.8,4.6,7.1,7.1c-2.4-2.3-4.9-4.5-7.4-6.7
		c-1.3-1.1-2.5-2.2-3.8-3.2l-1.9-1.6l-1-0.8c-0.5-0.4-0.6-0.7-0.9-1.1C-54.4-23-59.3-28-65.5-29.8c-1.5-0.5-3.1-0.8-4.6-0.7
		c-0.4,0-0.8,0.1-1.1,0.1c-0.1,0-0.2,0-0.2,0.1h0C-71.3-30.2-73-30.6-72.3-30.5L-72.3-30.5L-72.3-30.5z M-44.8,21.8
		c-0.5,0.2-2.3-3.4-1.8-8.3c0-0.3,0.1-0.6,0.1-0.8h0c0.2-1.1,0.5-2.2,1-3.3c0.5,0,1,0,1.6,0c-0.4,1.2-0.6,2.3-0.7,3.6h0
		c0,0.2-0.1,0.5-0.1,0.7C-45.3,18.1-44.3,21.7-44.8,21.8z M-37.8,30c0.9-0.2,1.9-0.5,2.9-0.8c0-0.1,2.3,0.3,7.9-0.5
		c2.8-0.5,6.4-1.3,10.6-3.6c4.1-2.3,8.6-6.5,10.7-13.2l0,0l0,0l0,0l0,0l0,0l0,0C-7.7,18.6-12,23-16,25.7c-4,2.7-7.7,4-10.5,4.9
		c-5.7,1.7-8,2.1-8,2.2c-2.1-0.3-4-0.5-5.7-0.5C-39.4,31.5-38.6,30.8-37.8,30z M-56.9,32.4c-5.9-1.5-6.7-3.3-6.8-3.3l0,0
		c0,0,1.5-1,7.3-0.8c2.9,0.1,5.5,1.1,8.7,1.7c0.8,0.2,1.7,0.3,2.7,0.4c-1.1,0.7-2.2,1.4-3.4,2C-51.4,32.7-54.1,33.1-56.9,32.4z
		 M-17.7,16.1c0.7,0,1.4,0.1,2.2,0.3c0.4,0.1,0.7,0.2,1.2,0.4c0.2,0.1,0.5,0.2,0.7,0.6c0.3,0.4,0.1,1-0.1,1.2
		c-0.8,0.9-1.4,1-2.1,1.2c-0.7,0.2-1.4,0.4-2.1,0.5c-3.6,0.6-7.4,0.5-10.9-0.7c-3.5,2.1-6,5.7-9,8.9l0,0c-1.2,1.3-2.5,2.4-4,3.5
		c-6.4,4.7-13.7,6.5-20.3,7.4c-6.6,0.8-12.8-0.1-17.5-2c-4.7-1.8-8-4.4-10-6.4c-2-2-2.8-3.4-2.7-3.4c0.2-0.3,3.8,5.2,13.1,8.6
		c4.6,1.6,10.5,2.4,16.8,1.5c6.3-0.9,13.4-2.8,19.4-7.2c1.4-1,2.6-2.1,3.8-3.3l0,0c1.9-1.9,3.6-4.1,5.7-6.1c0.8-0.8,1.8-1.6,2.8-2.3
		c-1.2-0.5-2.4-1.2-3.4-2.1c-2.2-1.8-4-4.2-4.6-7.1c-0.6-3,0.9-5.9,2.9-7.9c1.3-1.4,2.7-2.5,4.2-3.5c0.2,0.2,0.4,0.4,0.6,0.6
		c-1.5,1-2.9,2.1-4.1,3.4c-1.8,1.9-3.1,4.5-2.5,7.1c0.5,2.5,2.3,4.8,4.3,6.4c1.2,0.9,2.6,1.7,4,2.2c1.1-0.6,2.2-1,3.4-1.3
		C-23.4,16-20.5,16-17.7,16.1z M-18.3,19c1.1-0.2,2.4-0.6,3.1-1c-0.2-0.1-0.4-0.1-0.7-0.2c-0.6-0.1-1.3-0.2-2-0.2
		c-2.7-0.1-5.4,0-8,0.8c-0.5,0.1-1,0.3-1.5,0.5C-24.3,19.5-21.2,19.5-18.3,19z M-21.6-6.4c-2,1.4-4.2,2.2-6.3,3.3
		c-0.1-0.2-0.3-0.4-0.4-0.6c2.1-1.1,4.3-2.1,6.3-3.3c4.5-3.1,7.9-7.8,9.4-13.1c1.5-5.3,0.8-11.1-1.2-16.2c-2-5.2-5.2-9.8-8.8-14
		c3.6,4.2,6.9,8.8,9,13.9c2.1,5.1,2.9,10.9,1.4,16.4C-13.6-14.5-17.1-9.7-21.6-6.4z M-1.8,5.9C-2,10.6-3,15.4-5.1,19.7l0,0
		c-0.4,0.7-0.7,1.3-1.1,2c-3.4,5.7-8.5,9.3-12.3,11.1c-3.9,1.8-6.6,2-6.6,1.7c-0.1-0.3,2.4-1.1,5.9-3.2c3.5-2,8-5.5,11.1-10.8
		c0.4-0.6,0.7-1.2,1-1.8l0,0c2.1-3.9,3.2-8.4,3.6-12.9c0.3-4.5,0.3-9.2,0.4-13.8l0.6-27.8L-2-8.1C-1.9-3.4-1.7,1.1-1.8,5.9z
		 M-85.7,43.6c0.6,0.1,1.1,0.2,1.7,0.4v0c7.1,1.6,14.5,1.7,21.6,0.1c7.1-1.6,13.9-4.8,19.9-9c-5.9,4.5-12.5,8-19.7,9.9
		c-7.2,1.9-14.8,2.2-22.2,0.8v0c-0.6-0.1-1.1-0.2-1.7-0.4c-10.1-2.3-16.9-7.5-16.6-7.9C-102.5,37.1-95.4,41.3-85.7,43.6z
		 M-12.5,10.3c-2.7,0.7-5.4,0-7.5-1.2c-4.4-2.4-6.8-6.2-9.2-8.9c-2.4-2.8-4.6-5.2-6.6-7.3c-7.8-8.2-11.5-10.8-11.5-10.8
		c-1.3-1.9-2.6-3.7-3.9-5.3c-4-4.7-10.8-10.9-18.7-10.9c0,0-20.7-14.9-39.3-16.4c0,0,26.9-4,44.6,8.3c0,0,3.7,6.3,12.2,13.5
		c2.6,2.1,5.6,4.3,9.1,6.8c0,0,0.1,0.1,0.2,0.3c0.8,1,3.8,4.7,9.7,12.4c1.7,2.3,3.7,4.9,5.9,8c2.3,3,4.3,6.8,8.2,9.2
		c1.9,1.2,4.3,1.9,6.7,1.4c2.4-0.4,4.8-2.1,6.2-4.6c1.5-2.4,1.8-5.5,1.8-8.6c0-3.1,0.1-6.4,0.1-9.8v0v0v0.1c0,3.4,0.1,6.7,0.1,9.8
		C-4.3-0.6-4.5,2.5-6,5.1C-7.4,7.7-9.8,9.6-12.5,10.3z M-19.8-21.2c-0.3,0.2-1.2-2-3.8-4.1c-1.3-1-3.2-1.8-5.4-1.7
		c-2.1,0.1-4.4,1.3-5.5,3.4c-0.3,0.5-0.5,1-0.6,1.5h0c-0.5,1.7-0.2,3.6,0.8,5c1,1.5,2.6,2.6,4.3,3.4c3.5,1.7,7.7,1,10.6-1.7
		c2.9-2.6,4.6-6.4,5.1-10.3c0.5-3.9-0.1-8-1.6-11.7c3.3,7.1,3.1,16.7-2.9,22.7c-1.5,1.4-3.4,2.5-5.5,2.9c-2.1,0.4-4.3,0.1-6.2-0.7
		c-1.9-0.8-3.8-1.9-5.1-3.7c-1.3-1.8-1.8-4.2-1.2-6.4l0,0c0.2-0.7,0.4-1.3,0.8-2c1.5-2.7,4.5-4.2,7.1-4.2c2.6-0.1,4.9,1.1,6.3,2.3
		C-20.1-23.7-19.7-21.2-19.8-21.2z M-41.5,4.7c-0.4,0-0.8,0-1.2-0.1c0.3-0.4,0.7-0.8,1-1.2c2.4-2.5,5.3-4.4,8.3-5.8
		C-36.6-0.6-39.5,1.8-41.5,4.7z M-67.1,49.3c0.4-0.1,0.8-0.2,1.2-0.2l0,0c10.1-2,19.5-7.4,26.7-14.9c-7,7.7-16.3,13.4-26.5,15.8v0
		c-0.4,0.1-0.8,0.2-1.2,0.3c-7.1,1.5-13,0.6-12.9,0.3C-79.8,50.3-74,50.8-67.1,49.3z M-48.2,8.7c0.6-1.3,1.4-2.6,2-3.5
		c2.7,0.1,5,0.2,7,0.4c-0.4,1-0.6,2-0.6,2.7c-2.2,0.2-4.7,0.3-7.8,0.4C-47.8,8.7-48,8.7-48.2,8.7z M-36.9,5.8
		c6.1,0.5,7.6,1.1,7.6,1.1h0h0c0,0-1.6,0.6-8,1.2C-37.3,7.2-37.1,6.4-36.9,5.8z M-50,5.1c-1,1.3-1.6,2.8-1.9,3.7
		c-13.5-0.1-26-2.4-52.2-0.3c0,0-23.7-1.3-95.1-1.5h0h0h0.1c71.4-0.2,95.1-1.5,95.1-1.5C-76.7,7.6-64.3,4.9-50,5.1z"/>
	<linearGradient id="XMLID_4_" gradientUnits="userSpaceOnUse" x1="1.7556" y1="1.173999e-003" x2="199.4041" y2="1.173999e-003">
		<stop  offset="0" style="stop-color:#C49A6C"/>
		<stop  offset="1" style="stop-color:#FAF6F1"/>
		<stop  offset="1" style="stop-color:#FFFFFF"/>
	</linearGradient>
	<path id="XMLID_131_" class="st1" d="M35.2-2.8c5.4,1.1,11,3.6,14.4,8.6l0,0C49.7,6,49.8,6.2,50,6.4c2,3.7,1.4,7.2,0.9,7.1
		c-0.5,0-0.7-3.1-2.5-6.2L48,6.8l0,0C45.6,2,40.5-1.1,35.2-2.8z M72.3-30.5L72.3-30.5c0.7-0.2-1,0.3-0.8,0.2h0c-0.1,0-0.2,0-0.2-0.1
		c-0.4-0.1-0.7-0.1-1.1-0.1c-1.5-0.1-3.1,0.2-4.6,0.7C59.3-28,54.4-23,50.5-17.7c-0.3,0.4-0.3,0.6-0.9,1.1l-1,0.8l-1.9,1.6
		c-1.3,1.1-2.6,2.2-3.8,3.2c-2.5,2.2-5,4.4-7.4,6.7c2.3-2.4,4.7-4.8,7.1-7.1c1.2-1.2,2.4-2.3,3.7-3.4l1.9-1.7l0.9-0.8
		c0.2-0.1,0.4-0.6,0.7-0.9c3.7-5.5,8.4-11,15.2-13.3c1.7-0.5,3.5-0.7,5.3-0.5c0.4,0,0.9,0.1,1.3,0.2l0.4-0.3
		c0.6-0.6,1.3-1.1,1.9-1.7c2.6-2.2,5.5-4,8.4-5.7c5.9-3.3,12.1-5.9,18.5-7.8c-6.3,2.2-12.4,5.1-18,8.6c-2.8,1.8-5.5,3.7-8,5.9
		c-0.6,0.6-1.2,1.1-1.8,1.7l-0.4,0.4L72.3-30.5L72.3-30.5L72.3-30.5z M44.8,13.7c0-0.3,0-0.5-0.1-0.7h0c-0.1-1.2-0.4-2.4-0.7-3.6
		c0.6,0,1.1,0,1.6,0c0.4,1.1,0.7,2.2,1,3.3l0,0c0,0.3,0.1,0.5,0.1,0.8c0.5,4.9-1.4,8.6-1.8,8.3C44.3,21.7,45.3,18.1,44.8,13.7z
		 M40.2,32.2c-1.7,0.1-3.6,0.3-5.7,0.5c0-0.1-2.4-0.4-8-2.2c-2.8-0.9-6.5-2.2-10.5-4.9C12,23,7.7,18.6,5.7,11.8l0,0l0,0l0,0l0,0v0
		l0,0c2.1,6.7,6.6,10.9,10.7,13.2c4.1,2.3,7.8,3.1,10.6,3.6c5.6,0.9,7.9,0.5,7.9,0.5c1,0.4,2,0.6,2.9,0.8
		C38.6,30.8,39.4,31.5,40.2,32.2z M48.3,32.4c-1.2-0.6-2.3-1.3-3.4-2c1-0.1,1.9-0.2,2.7-0.4c3.3-0.7,5.8-1.7,8.7-1.7
		c5.8-0.2,7.3,0.8,7.3,0.8l0,0c0,0-0.9,1.7-6.8,3.3C54.1,33.1,51.4,32.7,48.3,32.4z M26.2,16.8c1.2,0.3,2.3,0.8,3.4,1.3
		c1.4-0.5,2.8-1.2,4-2.2c2-1.6,3.8-3.9,4.3-6.4c0.5-2.6-0.7-5.1-2.5-7.1C34.2,1.2,32.8,0,31.3-1c0.2-0.2,0.4-0.4,0.6-0.6
		c1.5,1,2.9,2.1,4.2,3.5c1.9,2,3.4,4.9,2.9,7.9c-0.6,2.9-2.5,5.3-4.6,7.1c-1.1,0.8-2.2,1.5-3.4,2.1c1,0.7,1.9,1.4,2.8,2.3
		c2,2,3.7,4.2,5.7,6.1l0,0c1.2,1.2,2.4,2.3,3.8,3.3c5.9,4.4,13,6.3,19.4,7.2c6.4,0.9,12.3,0.1,16.8-1.5c9.3-3.4,12.9-8.9,13.1-8.6
		c0.1,0.1-0.7,1.5-2.7,3.4c-2,2-5.3,4.6-10,6.4c-4.7,1.9-10.9,2.8-17.5,2c-6.6-0.9-13.9-2.8-20.3-7.4c-1.5-1.1-2.8-2.3-4-3.5l0,0
		c-3-3.2-5.5-6.8-9-8.9c-3.5,1.1-7.3,1.2-10.9,0.7c-0.7-0.1-1.4-0.3-2.1-0.5c-0.7-0.3-1.4-0.4-2.1-1.2c-0.2-0.2-0.3-0.9-0.1-1.2
		c0.2-0.4,0.5-0.5,0.7-0.6c0.4-0.2,0.8-0.3,1.2-0.4c0.7-0.1,1.5-0.2,2.2-0.3C20.5,16,23.4,16,26.2,16.8z M27.3,18.8
		c-0.5-0.2-1-0.4-1.5-0.5c-2.5-0.7-5.3-0.8-8-0.8c-0.7,0-1.3,0.1-2,0.2c-0.2,0-0.5,0.1-0.7,0.2c0.7,0.4,2,0.8,3.1,1
		C21.2,19.5,24.3,19.5,27.3,18.8z M12.2-19.9c-1.5-5.4-0.7-11.3,1.4-16.4c2.1-5.2,5.3-9.7,9-13.9c-3.6,4.2-6.7,8.8-8.8,14
		c-2,5.1-2.7,10.9-1.2,16.2c1.5,5.3,4.9,10,9.4,13.1c2,1.2,4.2,2.2,6.3,3.3C28.2-3.4,28-3.2,27.9-3c-2.1-1.1-4.3-1.9-6.3-3.3
		C17.1-9.7,13.6-14.5,12.2-19.9z M2-8.1l0.6-27.8L3.2-8.1C3.3-3.5,3.3,1.3,3.6,5.8c0.4,4.5,1.5,8.9,3.6,12.9h0
		c0.3,0.6,0.6,1.2,1,1.8c3.1,5.3,7.6,8.8,11.1,10.8c3.5,2.1,5.9,2.8,5.9,3.2c-0.1,0.3-2.7,0.1-6.6-1.7c-3.9-1.7-9-5.3-12.3-11.1
		c-0.4-0.6-0.7-1.3-1.1-2l0,0C3,15.4,2,10.6,1.8,5.9C1.7,1.1,1.9-3.4,2-8.1z M102.7,37.5c0.4,0.4-6.5,5.6-16.6,7.9
		c-0.6,0.1-1.2,0.3-1.7,0.4v0c-7.4,1.3-15,1.1-22.2-0.8C55,43,48.3,39.5,42.5,35c6,4.2,12.8,7.4,19.9,9c7.1,1.6,14.6,1.5,21.6-0.1v0
		c0.5-0.1,1.1-0.2,1.7-0.4C95.4,41.3,102.5,37.1,102.7,37.5z M6,5.1C4.5,2.5,4.3-0.6,4.5-3.7c0-3.1,0.1-6.4,0.1-9.8v-0.1v0v0
		c0,3.4,0.1,6.7,0.1,9.8C4.6-0.6,4.9,2.5,6.5,4.9c1.4,2.4,3.7,4.1,6.2,4.6c2.5,0.5,4.9-0.3,6.7-1.4c3.9-2.4,5.9-6.2,8.2-9.2
		c2.2-3,4.2-5.7,5.9-8c5.9-7.7,8.9-11.4,9.7-12.4c0.1-0.2,0.2-0.3,0.2-0.3c3.5-2.4,6.4-4.7,9.1-6.8c8.5-7.3,12.2-13.5,12.2-13.5
		c17.6-12.3,44.6-8.3,44.6-8.3C90.6-48.9,70-34.1,70-34.1c-7.9,0-14.7,6.2-18.7,10.9c-1.3,1.6-2.6,3.3-3.9,5.3
		c0,0-3.7,2.7-11.5,10.8c-1.9,2.1-4.1,4.5-6.6,7.3c-2.5,2.7-4.8,6.5-9.2,8.9c-2.1,1.2-4.8,1.8-7.5,1.2C9.8,9.6,7.4,7.7,6,5.1z
		 M22.8-26.3c1.4-1.3,3.6-2.5,6.3-2.3c2.6,0,5.6,1.5,7.1,4.2c0.3,0.6,0.6,1.3,0.8,2l0,0c0.6,2.2,0.1,4.6-1.2,6.4
		c-1.3,1.8-3.2,3-5.1,3.7c-1.9,0.8-4.1,1.1-6.2,0.7c-2.1-0.4-4-1.5-5.5-2.9c-6-6-6.2-15.6-2.9-22.7c-1.5,3.7-2.1,7.8-1.6,11.7
		c0.5,3.9,2.2,7.7,5.1,10.3c2.9,2.7,7.1,3.4,10.6,1.7c1.7-0.8,3.3-1.9,4.3-3.4c1-1.5,1.3-3.4,0.8-5h0c-0.1-0.5-0.4-1-0.6-1.5
		c-1.2-2.1-3.4-3.3-5.5-3.4c-2.2-0.2-4,0.6-5.4,1.7c-2.7,2.1-3.6,4.3-3.8,4.1C19.7-21.2,20.1-23.7,22.8-26.3z M33.4-2.3
		c3.1,1.4,6,3.2,8.3,5.8c0.4,0.4,0.7,0.8,1,1.2c-0.4,0-0.8,0-1.2,0.1C39.5,1.8,36.6-0.6,33.4-2.3z M79.8,50.5
		c0.1,0.3-5.8,1.1-12.9-0.3c-0.4-0.1-0.8-0.2-1.2-0.3v0c-10.2-2.4-19.5-8.1-26.5-15.8c7.2,7.5,16.6,12.9,26.7,14.9l0,0
		c0.4,0.1,0.8,0.2,1.2,0.2C74,50.8,79.8,50.3,79.8,50.5z M47.6,8.7c-3.1-0.1-5.7-0.3-7.8-0.4c0-0.7-0.1-1.7-0.6-2.7
		c1.9-0.1,4.2-0.3,7-0.4c0.6,0.9,1.4,2.2,2,3.5C48,8.7,47.8,8.7,47.6,8.7z M37.3,8.1c-6.4-0.6-8-1.2-8-1.2l0,0h0
		c0,0,1.5-0.6,7.6-1.1C37.1,6.4,37.3,7.2,37.3,8.1z M104.2,5.4c0,0,23.7,1.3,95.1,1.5h0.1h0h0c-71.4,0.2-95.1,1.5-95.1,1.5
		C78,6.4,65.4,8.7,52,8.8c-0.3-0.9-0.9-2.4-1.9-3.7C64.3,4.9,76.7,7.6,104.2,5.4z"/>
</symbol>
<use xlink:href="#Florid_Vector_Pack_04"  width="398.8" height="102.1" id="XMLID_5_" x="-199.4" y="-51" transform="matrix(1.4583 0 0 -1 304.9996 146.0884)" style="overflow:visible;"/>
<g id="XMLID_35_">
	<linearGradient id="XMLID_57_" gradientUnits="userSpaceOnUse" x1="51.0962" y1="87.2117" x2="210.752" y2="87.2117">
		<stop  offset="0" style="stop-color:#3C2415"/>
		<stop  offset="1" style="stop-color:#F1F2F2"/>
	</linearGradient>
	<linearGradient id="XMLID_58_" gradientUnits="userSpaceOnUse" x1="50.5962" y1="87.2117" x2="211.252" y2="87.2117">
		<stop  offset="0" style="stop-color:#3C2415"/>
		<stop  offset="1" style="stop-color:#F1F2F2"/>
	</linearGradient>
	<path id="XMLID_36_" class="st2" d="M210.8,59.4c0,2.5-0.3,5.1-1,8.1c-0.7,2.9-1.3,4.4-1.9,4.4c-0.5,0-0.7-0.2-0.7-0.7
		c0-0.1,0-0.4,0.1-0.6c1.3-3.3,1.9-6.9,1.9-10.7c0-5.9-1.8-10.7-5.3-14.3c-3.5-3.6-8.2-5.4-14-5.4c-7.8,0-15.8,2.6-24.1,7.7
		c6.6,4.9,9.9,10.6,9.9,17.2c0,10.5-7.2,16.8-21.5,18.8c11.8,4.1,17.6,11.6,17.6,22.6c0,8.1-3.5,15.2-10.4,21.3
		c-6.9,6.1-15,9.1-24.2,9.1c-4.4,0-8-1.1-10.6-3.4c-2.6-2.3-3.9-5.4-3.9-9.3c0-6,2.8-12,8.3-17.9c5.5-5.9,11.1-8.9,16.7-8.9
		c3.1,0,5.7,1,7.6,2.9c2,2,3,4.5,3,7.5c0,1.8-0.6,4.1-1.7,6.9c-1.1,2.7-2.1,4.1-2.8,4.1c-0.5,0-0.8-0.2-0.8-0.6
		c0-0.2,0.1-0.5,0.3-0.8c2.5-3.6,3.7-6.8,3.7-9.7c0-2.7-0.9-4.9-2.6-6.5c-1.7-1.7-4-2.5-6.9-2.5c-5.3,0-10.5,2.8-15.6,8.4
		c-5.1,5.6-7.6,11.4-7.6,17.2c0,3.1,1.1,5.7,3.2,7.8c2.1,2.1,4.8,3.1,7.9,3.1c7.2,0,13.8-3.5,19.8-10.5c6-7,9-14.7,9-23.1
		c0-7.8-3.8-13.6-11.3-17.3l-4.1,0.5c-1.1,0.1-2.3,0.2-3.4,0.2c-3.6,0-5.4-0.6-5.4-1.8c0-0.8,1.5-1.3,4.5-1.3c2.1,0,4.9,0.4,8.4,1.3
		c4.9-1.5,8.8-4.2,11.6-7.9c2.9-3.8,4.3-8.1,4.3-13c0-4.7-1.8-9-5.5-12.8c-10.3,7.9-20.1,21.4-29.2,40.4
		c-5.6,11.7-10.8,20.1-15.4,25.3c-4.5,5.1-11,9.7-19.3,13.8c-9.9,4.8-18.7,7.2-26.4,7.2c-6.3,0-11.6-1.5-15.8-4.4
		c-4.2-2.9-6.3-6.5-6.3-10.9c0-2.4,0.7-4.5,2.2-6.2c1.4-1.7,3.2-2.6,5.1-2.6c2.9,0,4.3,1.6,4.3,4.8c0,1.6-0.5,3-1.5,4.1
		c-1,1.1-2.2,1.7-3.6,1.7c-2.5,0-3.6-1.3-3.5-3.8c0-1,0-1.6-0.3-1.6c-0.8,0-1.1,1.3-1.1,3.8c0,3.9,1.9,7.2,5.8,9.8
		c3.8,2.6,8.7,3.9,14.5,3.9c10.3,0,19.7-3.8,28.1-11.5c3.6-3.3,6.8-6.8,9.5-10.4c2.7-3.6,8.9-12.8,18.5-27.5
		c4.7-7,10.3-14.2,16.9-21.5c6.6-7.3,12.1-12.4,16.5-15.5C155,42.1,144.2,39,130,39c-19.9,0-37.2,7.2-52,21.6
		C66,72.4,59.9,83.5,59.9,93.9c0,5.3,1.7,9.5,5.1,12.6s8,4.7,13.8,4.7c9.5,0,19.3-4.6,29.4-13.7c10.1-9.1,15.2-18,15.2-26.6
		c0-6.8-3.5-10.3-10.5-10.3c-7,0-14.6,3.9-22.6,11.7c-8,7.8-12.1,15.2-12.1,22c0,1.7,0.6,3.2,1.7,4.4s2.5,1.8,4,1.8
		c0.8,0.1,1.2,0.3,1.2,0.6c0,0.4-0.4,0.6-1.3,0.6c-2.3,0-4.2-1-5.7-3.1c-1.6-2.1-2.3-4.6-2.3-7.5c0-7.3,4-14.4,12.1-21.4
		c8.1-7,16.4-10.4,24.9-10.4c8.1,0,12.2,3.8,12.2,11.3c0,9.2-5.2,18.4-15.5,27.8s-20.5,14-30.6,14c-6.6,0-11.8-2-15.8-5.9
		C59,102.6,57,97.3,57,90.7c0-13.4,7.5-25.5,22.6-36.6c15.1-11,31.8-16.5,50-16.5c13.7,0,25.4,3.1,35,9.3c8.6-5.4,17-8.1,25.1-8.1
		c6.3,0,11.4,1.9,15.3,5.7C208.8,48.3,210.8,53.2,210.8,59.4z"/>
	<linearGradient id="XMLID_59_" gradientUnits="userSpaceOnUse" x1="174.856" y1="106.6111" x2="206.7515" y2="106.6111">
		<stop  offset="0" style="stop-color:#3C2415"/>
		<stop  offset="1" style="stop-color:#F1F2F2"/>
	</linearGradient>
	<linearGradient id="XMLID_60_" gradientUnits="userSpaceOnUse" x1="174.356" y1="106.6111" x2="207.2515" y2="106.6111">
		<stop  offset="0" style="stop-color:#3C2415"/>
		<stop  offset="1" style="stop-color:#F1F2F2"/>
	</linearGradient>
	<path id="XMLID_38_" class="st3" d="M206.8,110.9c0,0.1-0.3,0.5-0.7,1.1l-3,4.2c-8.9,12.3-15.7,18.5-20.3,18.5
		c-2.2,0-4.1-0.8-5.6-2.4c-1.5-1.6-2.2-3.6-2.2-5.9c0-2.7,1.6-6.9,4.9-12.5l11-18.8c1.5,0.3,2.6,0.5,3.5,0.5c1.3,0,3.1-0.2,5.4-0.5
		l-16.1,26.4c-2.3,3.8-3.5,6.8-3.5,8.9c0,2.1,1.1,3.2,3.3,3.2c4.2,0,11.6-7.5,22.2-22.5c0.2-0.5,0.5-0.7,0.7-0.7
		C206.6,110.4,206.8,110.6,206.8,110.9z M205.7,81.6c0,1.7-0.7,3.2-2.1,4.6c-1.4,1.4-2.9,2.2-4.6,2.2c-2.1,0-3.2-1.1-3.2-3.2
		c0-1.6,0.7-3.1,2.2-4.5c1.5-1.4,3-2.2,4.6-2.2C204.7,78.5,205.7,79.6,205.7,81.6z"/>
	<linearGradient id="XMLID_61_" gradientUnits="userSpaceOnUse" x1="173.5107" y1="137.6216" x2="255.3208" y2="137.6216">
		<stop  offset="0" style="stop-color:#3C2415"/>
		<stop  offset="1" style="stop-color:#F1F2F2"/>
	</linearGradient>
	<linearGradient id="XMLID_62_" gradientUnits="userSpaceOnUse" x1="173.0107" y1="137.6216" x2="255.8208" y2="137.6216">
		<stop  offset="0" style="stop-color:#3C2415"/>
		<stop  offset="1" style="stop-color:#F1F2F2"/>
	</linearGradient>
	<path id="XMLID_41_" class="st4" d="M255.3,110.9c0,0.8-2.6,4-7.7,9.7c-5.7,6.3-13.1,12-22.2,16.9l-3.5,6.4
		c-6.4,11.8-13.6,21-21.6,27.4c-7.6,6.2-14.3,9.3-19.8,9.3c-2,0-3.7-0.6-5-1.8c-1.3-1.2-2-2.7-2-4.5c0-9.7,10.9-19.5,32.8-29.5
		c4.7-2.2,7.8-3.6,9.1-4.4l12-22.2c-5.2,6.9-8.9,11.4-11.1,13.4c-2.1,2-4.4,3-6.6,3c-2.5,0-4.5-1.1-6.3-3.3
		c-1.7-2.2-2.6-4.8-2.6-7.9c0-8.2,5.3-15.6,16-22.2c7.1-4.4,12.7-6.7,16.8-6.7c2.8,0,4.2,1.6,4.2,4.7c0,0.8-0.2,1.9-0.6,3l4-7.2
		c1.3,0.3,2.4,0.5,3.3,0.5c1.2,0,3-0.2,5.4-0.5c-0.3,0.4-2.4,4-6.2,10.6l-17.6,30.3c6.2-3.5,11.1-6.9,14.8-10.1
		c3.7-3.3,7.9-7.9,12.6-14.1c0.7-0.9,1.2-1.4,1.4-1.4C255.2,110.6,255.3,110.7,255.3,110.9z M214.7,141.6c-0.9,0.5-3.6,1.9-8,4
		c-21.5,10.7-32.3,20.2-32.3,28.7c0,1.5,0.5,2.7,1.6,3.7c1.1,1,2.5,1.5,4.2,1.5c5.2,0,10.2-2.7,15.2-8c4.9-5.3,11.1-14.8,18.5-28.6
		L214.7,141.6z M237.2,99.3c0-2.4-1.2-3.6-3.5-3.6c-4.2,0-9.9,4.2-16.9,12.7c-7,8.5-10.5,15.3-10.5,20.5c0,3.2,1.4,4.7,4.1,4.7
		c2.8,0,7.5-4.2,14.2-12.6C233,110.4,237.2,103.2,237.2,99.3z"/>
	<linearGradient id="XMLID_63_" gradientUnits="userSpaceOnUse" x1="284.3848" y1="87.2117" x2="444.041" y2="87.2117">
		<stop  offset="0" style="stop-color:#3C2415"/>
		<stop  offset="1" style="stop-color:#F1F2F2"/>
	</linearGradient>
	<linearGradient id="XMLID_64_" gradientUnits="userSpaceOnUse" x1="283.8848" y1="87.2117" x2="444.541" y2="87.2117">
		<stop  offset="0" style="stop-color:#3C2415"/>
		<stop  offset="1" style="stop-color:#F1F2F2"/>
	</linearGradient>
	<path id="XMLID_45_" class="st5" d="M444,59.4c0,2.5-0.3,5.1-1,8.1c-0.7,2.9-1.3,4.4-1.9,4.4c-0.5,0-0.7-0.2-0.7-0.7
		c0-0.1,0-0.4,0.1-0.6c1.3-3.3,1.9-6.9,1.9-10.7c0-5.9-1.8-10.7-5.3-14.3c-3.5-3.6-8.2-5.4-14-5.4c-7.8,0-15.8,2.6-24.1,7.7
		c6.6,4.9,9.9,10.6,9.9,17.2c0,10.5-7.2,16.8-21.5,18.8c11.8,4.1,17.6,11.6,17.6,22.6c0,8.1-3.5,15.2-10.4,21.3
		c-6.9,6.1-15,9.1-24.3,9.1c-4.4,0-8-1.1-10.6-3.4c-2.6-2.3-3.9-5.4-3.9-9.3c0-6,2.8-12,8.3-17.9c5.5-5.9,11.1-8.9,16.7-8.9
		c3.1,0,5.7,1,7.6,2.9c2,2,3,4.5,3,7.5c0,1.8-0.6,4.1-1.7,6.9c-1.1,2.7-2.1,4.1-2.8,4.1c-0.5,0-0.8-0.2-0.8-0.6
		c0-0.2,0.1-0.5,0.3-0.8c2.5-3.6,3.7-6.8,3.7-9.7c0-2.7-0.9-4.9-2.6-6.5c-1.7-1.7-4-2.5-6.9-2.5c-5.3,0-10.5,2.8-15.6,8.4
		c-5.1,5.6-7.6,11.4-7.6,17.2c0,3.1,1.1,5.7,3.2,7.8c2.1,2.1,4.8,3.1,7.9,3.1c7.2,0,13.8-3.5,19.8-10.5c6-7,9-14.7,9-23.1
		c0-7.8-3.8-13.6-11.3-17.3l-4.1,0.5c-1.1,0.1-2.3,0.2-3.4,0.2c-3.6,0-5.4-0.6-5.4-1.8c0-0.8,1.5-1.3,4.5-1.3c2.1,0,4.9,0.4,8.4,1.3
		c4.9-1.5,8.8-4.2,11.6-7.9c2.9-3.8,4.3-8.1,4.3-13c0-4.7-1.8-9-5.5-12.8c-10.3,7.9-20.1,21.4-29.2,40.4
		c-5.6,11.7-10.8,20.1-15.4,25.3c-4.5,5.1-11,9.7-19.3,13.8c-9.9,4.8-18.7,7.2-26.4,7.2c-6.3,0-11.6-1.5-15.8-4.4
		c-4.2-2.9-6.3-6.5-6.3-10.9c0-2.4,0.7-4.5,2.2-6.2c1.4-1.7,3.2-2.6,5.1-2.6c2.9,0,4.3,1.6,4.3,4.8c0,1.6-0.5,3-1.5,4.1
		c-1,1.1-2.2,1.7-3.6,1.7c-2.5,0-3.6-1.3-3.5-3.8c0-1,0-1.6-0.3-1.6c-0.8,0-1.1,1.3-1.1,3.8c0,3.9,1.9,7.2,5.8,9.8s8.7,3.9,14.6,3.9
		c10.3,0,19.7-3.8,28.1-11.5c3.6-3.3,6.8-6.8,9.5-10.4c2.7-3.6,8.9-12.8,18.5-27.5c4.7-7,10.3-14.2,16.8-21.5
		c6.6-7.3,12.1-12.4,16.5-15.5c-7.5-6.3-18.3-9.4-32.4-9.4c-19.9,0-37.2,7.2-52,21.6c-12.1,11.8-18.1,22.9-18.1,33.3
		c0,5.3,1.7,9.5,5.1,12.6s8,4.7,13.8,4.7c9.5,0,19.3-4.6,29.4-13.7c10.1-9.1,15.2-18,15.2-26.6c0-6.8-3.5-10.3-10.6-10.3
		s-14.6,3.9-22.6,11.7c-8,7.8-12.1,15.2-12.1,22c0,1.7,0.6,3.2,1.7,4.4s2.5,1.8,4,1.8c0.8,0.1,1.2,0.3,1.2,0.6
		c0,0.4-0.4,0.6-1.3,0.6c-2.3,0-4.2-1-5.7-3.1c-1.6-2.1-2.3-4.6-2.3-7.5c0-7.3,4-14.4,12.1-21.4c8.1-7,16.4-10.4,24.8-10.4
		c8.1,0,12.2,3.8,12.2,11.3c0,9.2-5.2,18.4-15.5,27.8c-10.3,9.3-20.5,14-30.6,14c-6.6,0-11.8-2-15.8-5.9c-3.9-3.9-5.9-9.2-5.9-15.8
		c0-13.4,7.5-25.5,22.6-36.6c15.1-11,31.8-16.5,50-16.5c13.7,0,25.4,3.1,35,9.3c8.6-5.4,17-8.1,25.1-8.1c6.3,0,11.4,1.9,15.3,5.7
		C442.1,48.3,444,53.2,444,59.4z"/>
	<linearGradient id="XMLID_65_" gradientUnits="userSpaceOnUse" x1="408.1445" y1="106.6111" x2="440.04" y2="106.6111">
		<stop  offset="0" style="stop-color:#3C2415"/>
		<stop  offset="1" style="stop-color:#F1F2F2"/>
	</linearGradient>
	<linearGradient id="XMLID_66_" gradientUnits="userSpaceOnUse" x1="407.6445" y1="106.6111" x2="440.54" y2="106.6111">
		<stop  offset="0" style="stop-color:#3C2415"/>
		<stop  offset="1" style="stop-color:#F1F2F2"/>
	</linearGradient>
	<path id="XMLID_47_" class="st6" d="M440,110.9c0,0.1-0.3,0.5-0.7,1.1l-3,4.2c-8.9,12.3-15.7,18.5-20.3,18.5
		c-2.2,0-4.1-0.8-5.6-2.4c-1.5-1.6-2.2-3.6-2.2-5.9c0-2.7,1.6-6.9,4.9-12.5l11-18.8c1.5,0.3,2.6,0.5,3.5,0.5c1.3,0,3.1-0.2,5.4-0.5
		l-16.1,26.4c-2.3,3.8-3.5,6.8-3.5,8.9c0,2.1,1.1,3.2,3.3,3.2c4.2,0,11.6-7.5,22.2-22.5c0.2-0.5,0.5-0.7,0.7-0.7
		C439.9,110.4,440,110.6,440,110.9z M439,81.6c0,1.7-0.7,3.2-2.1,4.6c-1.4,1.4-2.9,2.2-4.6,2.2c-2.1,0-3.2-1.1-3.2-3.2
		c0-1.6,0.7-3.1,2.2-4.5c1.5-1.4,3-2.2,4.6-2.2C438,78.5,439,79.6,439,81.6z"/>
	<linearGradient id="XMLID_67_" gradientUnits="userSpaceOnUse" x1="435.9697" y1="114.3284" x2="480.5381" y2="114.3284">
		<stop  offset="0" style="stop-color:#3C2415"/>
		<stop  offset="1" style="stop-color:#F1F2F2"/>
	</linearGradient>
	<linearGradient id="XMLID_68_" gradientUnits="userSpaceOnUse" x1="435.0327" y1="114.3619" x2="481.0381" y2="114.3619">
		<stop  offset="0" style="stop-color:#3C2415"/>
		<stop  offset="1" style="stop-color:#F1F2F2"/>
	</linearGradient>
	<path id="XMLID_50_" class="st7" d="M480.5,110.9c0,0.4-1.4,2.1-4.3,5.2c-3.6,4-7,6-10.1,6c-3.6,0-5.4-2.1-5.4-6.2
		c0-1.3,0.3-3,0.8-5c-3,2.6-5.4,5.2-7.3,7.7c-1.9,2.5-5.1,7.7-9.7,15.6c-2.5-0.2-4-0.3-4.4-0.3c-0.2,0-1.6,0.1-4.3,0.3l11.6-18.8
		c5.8-9.4,8.7-15.3,8.7-17.6c0-1.3-0.5-2-1.6-2c-2.6,0-7.4,5.1-14.4,15.3c-0.4,0.7-0.8,1-1.1,1c-0.2,0-0.3-0.2-0.3-0.4
		c0-0.2,0.1-0.4,0.3-0.6l1.3-1.8c7.3-9.7,12.2-14.5,14.8-14.5c3.8,0,5.7,2.4,5.7,7.3c0,3.6-1.9,8.4-5.8,14.4c2.5-2.8,4.8-5.1,7-6.9
		c1.8-4.2,4-7.7,6.7-10.5c2.7-2.8,5.1-4.2,7.2-4.2c1.5,0,2.2,0.6,2.2,1.9c0,2.3-3.3,5.5-9.8,9.7c-1,0.7-2.6,1.6-4.7,2.9l-0.8,0.7
		c-0.7,2.2-1,4-1,5.4c0,4,1.5,5.9,4.5,5.9c3.7,0,7.7-3.1,12.1-9.2c0.9-1,1.5-1.6,1.8-1.6C480.4,110.4,480.5,110.6,480.5,110.9z"/>
	<linearGradient id="XMLID_69_" gradientUnits="userSpaceOnUse" x1="474.627" y1="114.647" x2="530.2412" y2="114.647">
		<stop  offset="0" style="stop-color:#3C2415"/>
		<stop  offset="1" style="stop-color:#F1F2F2"/>
	</linearGradient>
	<linearGradient id="XMLID_70_" gradientUnits="userSpaceOnUse" x1="474.127" y1="114.647" x2="530.7412" y2="114.647">
		<stop  offset="0" style="stop-color:#3C2415"/>
		<stop  offset="1" style="stop-color:#F1F2F2"/>
	</linearGradient>
	<path id="XMLID_52_" class="st8" d="M530.2,110.9c0,1-3.4,5.6-10.3,13.8c-5.6,6.7-10,10.1-13.2,10.1c-2.2,0-3.9-0.8-5.3-2.4
		c-1.4-1.6-2.1-3.7-2.1-6.1c0-2.5,0.8-5.3,2.3-8.3c-4.7,6.6-8.3,11.1-10.8,13.4c-2.5,2.3-4.9,3.5-7.3,3.5c-2.5,0-4.6-1.1-6.3-3.2
		c-1.7-2.1-2.5-4.9-2.5-8.1c0-9.1,6.4-17.1,19.2-24.1c5.6-3.1,10.1-4.7,13.6-4.7c2.9,0,4.4,1.4,4.4,4.2c0,0.8-0.2,1.9-0.6,3.2
		l3.6-6.9c1.4,0.3,2.7,0.5,3.8,0.5c1.3,0,2.9-0.2,5-0.5L511,115.9c-4.3,7.3-6.5,12.1-6.5,14.4c0,2.2,0.9,3.3,2.8,3.3
		c1.9,0,4.9-2.2,9.1-6.5c4.2-4.3,8.4-9.7,12.7-16c0.3-0.5,0.5-0.7,0.8-0.7C530.1,110.4,530.2,110.6,530.2,110.9z M510.7,99.1
		c0-2.3-1.1-3.5-3.2-3.5c-4.3,0-10,4.2-17.1,12.7c-7.1,8.5-10.6,15.4-10.6,20.6c0,3.1,1.4,4.6,4.1,4.6c3.3,0,8.9-5.4,16.9-16.2
		C507.5,108.5,510.7,102.4,510.7,99.1z"/>
	<linearGradient id="XMLID_71_" gradientUnits="userSpaceOnUse" x1="523.125" y1="97.6902" x2="567.5176" y2="97.6902">
		<stop  offset="0" style="stop-color:#3C2415"/>
		<stop  offset="1" style="stop-color:#F1F2F2"/>
	</linearGradient>
	<linearGradient id="XMLID_72_" gradientUnits="userSpaceOnUse" x1="522.625" y1="97.4546" x2="568.6844" y2="97.4546">
		<stop  offset="0" style="stop-color:#3C2415"/>
		<stop  offset="1" style="stop-color:#F1F2F2"/>
	</linearGradient>
	<path id="XMLID_55_" class="st9" d="M567.5,60.7c-19.8,33-31.4,52.4-34.7,58.2c-3.3,5.8-4.9,9.7-4.9,11.5c0,2.1,0.9,3.2,2.7,3.2
		c4,0,11.3-7.5,21.8-22.5c0.2-0.5,0.5-0.7,0.9-0.7c0.2,0,0.3,0.2,0.3,0.4c0,0.3-0.2,0.7-0.7,1.1l-3,4.2
		c-8.9,12.3-15.5,18.5-19.8,18.5c-2,0-3.7-0.8-5-2.3c-1.3-1.5-1.9-3.5-1.9-5.8c0-2.6,0.6-5.1,1.8-7.5c1.2-2.4,5.3-9.5,12.3-21.1
		c8.5-14.2,15.7-26.5,21.6-37c1.4,0.4,2.7,0.6,3.8,0.6C564.4,61.5,566,61.3,567.5,60.7z"/>
</g>
<g id="XMLID_6_">
	<linearGradient id="XMLID_73_" gradientUnits="userSpaceOnUse" x1="170.4883" y1="224.5068" x2="212.5156" y2="224.5068">
		<stop  offset="0" style="stop-color:#3C2415"/>
		<stop  offset="1" style="stop-color:#F1F2F2"/>
	</linearGradient>
	<linearGradient id="XMLID_74_" gradientUnits="userSpaceOnUse" x1="169.95" y1="224.4312" x2="213.0156" y2="224.4312">
		<stop  offset="0" style="stop-color:#3C2415"/>
		<stop  offset="1" style="stop-color:#F1F2F2"/>
	</linearGradient>
	<path id="XMLID_7_" class="st10" d="M205.2,201c1.9,0.5,3.3,1.3,4.3,2.2c1.4,1.4,2,3,2,4.8c0,1.5-0.5,3-1.6,4.6
		c-1.1,1.6-3,3.4-5.9,5.6c2.4,0.2,4.2,0.6,5.4,1.2c1.1,0.6,1.9,1.3,2.4,2.2c0.5,0.9,0.7,2.4,0.7,4.6v9.4c-6.5,0.7-12,3-16.6,6.8
		c-1.6-1.1-3.1-1.9-4.5-2.3c-2.3-0.8-4.8-1.1-7.4-1.1c-3.2,0-5.8,0.7-7.8,2c-1.3,0.9-2,1.8-2,2.6c0,0.3,0.2,0.8,0.6,1.5
		c0.4,0.6,0.6,1.2,0.6,1.5c0,0.4-0.1,0.7-0.4,1s-0.6,0.4-0.9,0.4c-0.5,0-1-0.2-1.4-0.7c-0.4-0.5-0.6-1.1-0.6-1.9
		c0-0.7,0.3-1.5,0.8-2.4c0.5-0.9,1.6-2.2,3.3-3.9s2.7-2.9,3.2-3.7c0.5-0.8,0.7-1.5,0.7-2.2c0-0.8-0.3-1.5-0.8-2
		c-0.5-0.5-1.2-0.8-2-0.8c-0.7,0-1.4,0.2-1.8,0.6c-0.5,0.4-0.8,1.1-1,2.1l-1,0c0-0.3,0-0.6,0-0.8c0-1.5,0.5-2.8,1.5-3.8
		c1-1,2.4-1.5,4.1-1.5c0.2,0,0.5,0,0.9,0c0-1.8-0.3-3.1-0.8-3.9c-0.8-1.3-2-1.9-3.7-1.9c-1,0-1.9,0.3-2.7,0.8
		c-0.4,0.3-0.8,0.8-1.3,1.7l-1.1-0.4c0.2-1.7,0.9-3.1,2-4.2c1.2-1,2.7-1.6,4.5-1.6c0.7,0,1.5,0.1,2.5,0.2c0.1-2.6,0.3-4.4,0.7-5.6
		c0.4-1.2,1.1-2.2,2-3.2c0.9-1,2.7-2.3,5.4-4.1c-2.5,0.8-4.6,1.2-6.3,1.2c-1.1,0-2.6-0.2-4.4-0.7c-1-0.2-1.8-0.4-2.2-0.4
		c-0.8,0-1.5,0.3-2.1,0.8c-0.6,0.6-0.9,1.5-1.1,3h-1c0.1-1.7,0.4-3.1,0.9-4.2s1.4-2,2.6-2.7c1.1-0.7,2.4-1,3.6-1
		c0.9,0,2.5,0.3,4.7,0.8s4,0.8,5.4,0.8c1,0,2-0.1,2.9-0.3c0.9-0.2,2.2-0.7,3.7-1.3l0.6,1.2c-3.9,1.9-6.6,3.8-7.9,5.6
		c-1.3,1.8-2,4.2-2,7.2v11.2c0,2.5-0.3,4.4-0.8,5.7s-1.6,2.9-3.3,4.7c3.2-1.4,5.4-2.8,6.5-4.4c1.1-1.6,1.7-3.9,1.7-6.9v-8.1
		c0-3.8,0.3-6.4,1-7.9c0.7-1.5,1.9-2.9,3.6-4C195.5,204.3,199.3,202.9,205.2,201z M200.5,203.7c-2,0.9-3.3,1.6-4,2.3
		c-0.7,0.6-1.2,1.4-1.4,2.2c-0.3,0.8-0.4,2.3-0.4,4.3v11.2c0,2-0.2,3.5-0.5,4.5c-0.4,1-1.1,2-2.1,3c-1,1-3.1,2.4-6.3,4.3
		c1.7-0.3,3.3-0.4,4.8-0.4c2.5,0,4.9,0.3,7.1,1v-22.8h1.2v7.1c2.5-1.5,4.4-3.1,5.6-4.7c1.2-1.6,1.8-3.3,1.8-5.2
		c0-1.5-0.5-2.8-1.4-3.9C203.9,205.5,202.4,204.6,200.5,203.7z M198.8,224.4c1.5,0.5,2.8,0.8,4,0.8s2.6-0.3,4-0.8
		c0-1.3-0.3-2.3-0.8-3c-0.6-0.8-1.6-1.5-3.2-2.2c-2,1.3-3.3,2.2-4,2.5V224.4z M206.9,225.6c-1.5,0.5-2.9,0.8-4,0.8
		c-1.3,0-2.6-0.3-4-0.8v4.9c1.4-0.5,2.7-0.8,3.9-0.8c1.2,0,2.6,0.3,4.2,0.8V225.6z M206.9,231.7c-1.7-0.6-3.1-0.9-4.3-0.9
		c-1.2,0-2.5,0.3-3.8,0.9v4.9c0.8,0.3,1.5,0.7,2.2,1.2c1.9-1,3.8-1.7,5.9-2.3V231.7z"/>
	<linearGradient id="XMLID_75_" gradientUnits="userSpaceOnUse" x1="217" y1="231.7803" x2="239.1484" y2="231.7803">
		<stop  offset="0" style="stop-color:#3C2415"/>
		<stop  offset="1" style="stop-color:#F1F2F2"/>
	</linearGradient>
	<linearGradient id="XMLID_76_" gradientUnits="userSpaceOnUse" x1="216.4773" y1="231.692" x2="239.6484" y2="231.692">
		<stop  offset="0" style="stop-color:#3C2415"/>
		<stop  offset="1" style="stop-color:#F1F2F2"/>
	</linearGradient>
	<path id="XMLID_13_" class="st11" d="M217.2,218.1l5.7-4.8c1.6,1.1,2.6,2,3,2.8c0.5,0.8,0.7,1.9,0.7,3.2v0.6l8.2-6.6
		c2.8,3,4.3,6.2,4.3,9.5c0,1.8-0.5,3.6-1.4,5.5c-0.9,1.8-2.4,3.5-4.4,5.2c-2,1.6-5.2,3.8-9.6,6.4c-1.9,1.2-3.1,1.9-3.5,2.2
		c-0.8,0.6-1.4,1.3-1.8,1.9c-0.3,0.4-0.4,0.9-0.4,1.5c0,0.9,0.5,1.8,1.4,2.6c0.9,0.8,2.1,1.2,3.7,1.2c1.1,0,2-0.2,2.7-0.6
		c0.3-0.2,0.7-0.6,1-1.2c0.3-0.6,0.6-1,0.8-1.2c0.2-0.2,0.5-0.3,0.8-0.3c0.4,0,0.7,0.1,0.9,0.3c0.2,0.2,0.3,0.5,0.3,0.8
		c0,0.6-0.4,1.2-1.3,1.7c-1.3,0.9-3,1.4-5,1.4c-2.1,0-3.7-0.5-4.8-1.5c-1.1-1-1.7-2.2-1.7-3.5c0-1.3,0.6-2.7,1.9-3.9
		c0.6-0.6,1-1.1,1.1-1.3c0.4-0.7,0.7-1.3,0.8-1.9c0.1-0.6,0.2-1.4,0.2-2.5v-13.1c0-1.8-0.2-3.1-0.6-3.7c-0.3-0.5-0.7-0.8-1.1-0.8
		c-0.3,0-0.7,0.2-1.2,0.7c-0.1,0.1-0.2,0.2-0.4,0.3L217.2,218.1z M226.7,221.2v15.5c2.6-1.9,4.4-3.8,5.5-5.8c1.1-2,1.6-3.9,1.6-5.8
		c0-2.5-1-4.9-3-7.2L226.7,221.2z"/>
	<linearGradient id="XMLID_77_" gradientUnits="userSpaceOnUse" x1="255.9922" y1="222.5244" x2="300.043" y2="222.5244">
		<stop  offset="0" style="stop-color:#3C2415"/>
		<stop  offset="1" style="stop-color:#F1F2F2"/>
	</linearGradient>
	<linearGradient id="XMLID_78_" gradientUnits="userSpaceOnUse" x1="255.4922" y1="222.4939" x2="300.543" y2="222.4939">
		<stop  offset="0" style="stop-color:#3C2415"/>
		<stop  offset="1" style="stop-color:#F1F2F2"/>
	</linearGradient>
	<path id="XMLID_16_" class="st12" d="M272.7,201.6l12.3,4.1l0.9-1.6c0.3-0.6,0.6-0.9,0.7-1.1c0.1-0.1,0.3-0.2,0.5-0.2
		s0.3,0.1,0.5,0.2c0.1,0.1,0.2,0.3,0.2,0.4c0,0.3-0.2,0.8-0.7,1.5l-6,10.1l4.7-0.3c1.4-0.1,3.1,0.1,5,0.6c1.9,0.5,3.5,1.2,4.9,2.1
		c1.4,1,2.4,2.1,3.2,3.4c0.8,1.3,1.2,2.7,1.2,4.3c0,2.9-1.2,5.7-3.6,8.5c-2.4,2.8-6.7,5.7-12.9,8.8c-2.2-0.8-4.7-1.6-7.6-2.5
		c-5.1,2.3-9.3,3.5-12.6,3.5c-2.4,0-4.2-0.5-5.4-1.5c-1.3-1-1.9-2.2-1.9-3.6c0-1.4,0.8-2.8,2.3-4c1.5-1.2,3.8-1.8,6.8-1.8
		c1.2,0,2.7,0.1,4.4,0.4l2.2-3.9l-4,0.3c-0.9,0-2.2-0.1-3.8-0.4c-1.6-0.3-2.9-0.7-4-1.4c-1-0.6-1.8-1.4-2.3-2.4
		c-0.5-0.9-0.8-1.9-0.8-2.9c0-1.6,0.6-3.1,1.7-4.3c0.7-0.8,1.9-1.5,3.6-2.2l0-0.3c0-1.7,0.8-3.6,2.3-5.8
		C265.9,207.5,268.7,204.8,272.7,201.6z M274.1,239.3c-4.5-1.5-8.3-2.3-11.2-2.3c-1.5,0-2.7,0.3-3.6,1c-0.6,0.4-0.9,1-0.9,1.6
		c0,0.7,0.3,1.2,0.9,1.6c0.9,0.7,2.3,1,4.1,1C266.3,242.2,269.8,241.3,274.1,239.3z M276.8,220.2c-2.4,0.3-4.7,0.5-6.9,0.5
		c-2.5,0-4.2-0.3-5.3-0.9c-1-0.6-1.8-1.5-2.3-2.7c-1.3,0.8-2,1.9-2,3.1c0,1.1,0.5,2.1,1.5,2.8c1.3,0.9,3.7,1.4,6.9,1.4
		c1.5,0,3.5-0.1,5.9-0.4L276.8,220.2z M282.5,210.1c-2.9-1.4-5.1-2.4-6.7-2.9c-1.6-0.5-3-0.7-4.2-0.7c-1.7,0-3.1,0.5-4.2,1.4
		c-1.1,1-1.6,2.1-1.6,3.4c0,1.3,0.5,2.3,1.4,3.1c0.9,0.8,2.3,1.2,4.2,1.2c1.2,0,4-0.2,8.3-0.5L282.5,210.1z M270.7,233.3
		c1.7,0.4,3.1,0.7,4.2,1c1.1,0.3,3,1,5.8,1.9c4.4-2,6.6-4,6.6-5.8c0-0.6-0.3-1.1-0.8-1.6c-0.5-0.5-1.2-0.7-2-0.7
		c-1,0-2.2,0.1-3.6,0.3c-4,0.4-6.6,0.6-7.8,0.6L270.7,233.3z M276.1,223.9c4.4-0.4,7.4-0.6,9.1-0.6c2.3,0,4.1,0.5,5.3,1.6
		s1.8,2.3,1.8,3.8c0,1.3-0.6,2.5-1.8,3.7c-1.2,1.2-3.8,2.7-7.7,4.5l5.6,1.5c2.4-1.5,4.2-3.1,5.5-4.8c1.3-1.7,1.9-3.6,1.9-5.7
		c0-1.3-0.4-2.7-1.2-4c-0.8-1.3-2.1-2.3-3.7-3.1c-1.7-0.8-3.6-1.2-5.8-1.2c-1.8,0-4,0.2-6.8,0.5L276.1,223.9z"/>
	<linearGradient id="XMLID_79_" gradientUnits="userSpaceOnUse" x1="304.1719" y1="227.8975" x2="324.1055" y2="227.8975">
		<stop  offset="0" style="stop-color:#3C2415"/>
		<stop  offset="1" style="stop-color:#F1F2F2"/>
	</linearGradient>
	<linearGradient id="XMLID_80_" gradientUnits="userSpaceOnUse" x1="303.5485" y1="227.896" x2="324.6055" y2="227.896">
		<stop  offset="0" style="stop-color:#3C2415"/>
		<stop  offset="1" style="stop-color:#F1F2F2"/>
	</linearGradient>
	<path id="XMLID_23_" class="st13" d="M324.1,217.3v20.5c-2.7,1.1-4.7,2-5.9,2.7c-0.9,0.5-1.8,1.2-2.7,2c-2.6-1.6-4.8-2.7-6.6-3.3
		c-1.3-0.5-2.8-0.7-4.5-0.8l-0.3-0.5c0.7-0.6,1.1-1.1,1.3-1.6c0.3-0.6,0.4-1.7,0.4-3.1v-15c3.3-1.1,6.2-2.7,8.6-4.7
		C317,215,320.3,216.4,324.1,217.3z M311.4,235.1l7.1,2.9v-17.4c-2.2-1-3.8-1.7-4.8-2.1c-0.7-0.2-1.4-0.4-2.4-0.6V235.1z"/>
	<linearGradient id="XMLID_81_" gradientUnits="userSpaceOnUse" x1="328.6992" y1="227.8975" x2="354.8672" y2="227.8975">
		<stop  offset="0" style="stop-color:#3C2415"/>
		<stop  offset="1" style="stop-color:#F1F2F2"/>
	</linearGradient>
	<linearGradient id="XMLID_82_" gradientUnits="userSpaceOnUse" x1="328.0025" y1="227.8963" x2="355.574" y2="227.8963">
		<stop  offset="0" style="stop-color:#3C2415"/>
		<stop  offset="1" style="stop-color:#F1F2F2"/>
	</linearGradient>
	<path id="XMLID_26_" class="st14" d="M348.3,213.3l4.9,4.1l-2.2,2v14.4c0,1.7,0.2,2.8,0.7,3.6c0.3,0.5,0.6,0.7,1,0.7
		c0.3,0,0.8-0.3,1.5-0.9l0.7,0.8l-5.8,4.5c-1.5-1-2.4-1.9-2.8-2.7c-0.4-0.8-0.7-2.1-0.7-3.9c-2.8,1.8-5.7,4-8.7,6.6
		c-1.8-1.4-2.9-2.6-3.5-3.7c-0.5-1-0.8-2.4-0.8-4.1v-13.5c0-0.9-0.1-1.6-0.3-1.9c-0.3-0.5-0.7-0.8-1.2-0.8c-0.4,0-1,0.3-1.7,0.9
		l-0.7-0.8l6.5-5.3l5,4.1l-2.1,1.8v14.5c0,1.1,0.1,1.9,0.4,2.4c0.3,0.5,0.9,1.1,2,1.9l5-3.7v-14.9l-1.9-2L348.3,213.3z"/>
	<linearGradient id="XMLID_83_" gradientUnits="userSpaceOnUse" x1="357.2461" y1="227.8975" x2="395.7188" y2="227.8975">
		<stop  offset="0" style="stop-color:#3C2415"/>
		<stop  offset="1" style="stop-color:#F1F2F2"/>
	</linearGradient>
	<linearGradient id="XMLID_84_" gradientUnits="userSpaceOnUse" x1="356.5544" y1="227.8754" x2="396.4168" y2="227.8754">
		<stop  offset="0" style="stop-color:#3C2415"/>
		<stop  offset="1" style="stop-color:#F1F2F2"/>
	</linearGradient>
	<path id="XMLID_28_" class="st15" d="M394.1,214.9l0.8,0.7c-1,0.9-1.8,1.6-2.1,2.2c-0.4,0.5-0.6,1.1-0.7,1.6
		c-0.1,0.5-0.2,1.7-0.2,3.4v11.4c0,1.5,0.1,2.5,0.4,3c0.3,0.5,0.6,0.7,0.8,0.7c0.4,0,1-0.4,1.9-1.1l0.7,0.8l-5.9,4.8
		c-1.4-1.1-2.2-1.9-2.6-2.6c-0.6-1-0.9-2.1-0.9-3.3v-16.5l-2.7-2.4l-4.3,4.1v14.8l2.1,2.2l-4.8,3.7l-4.9-3.7l2-2.2V223
		c0-1.6-0.1-2.6-0.4-3.1c-0.3-0.6-1.1-1.4-2.4-2.2l-4.3,3.6v15.2l2.1,2.2l-4.8,3.7l-4.9-3.7l2.1-2.2V222c0-1.5-0.2-2.6-0.6-3.3
		c-0.3-0.5-0.6-0.8-0.8-0.8c-0.3,0-0.9,0.4-1.8,1.1l-0.7-0.8l5.7-4.8c1.2,0.9,2.1,1.6,2.5,2.1c0.4,0.6,0.8,1.2,0.9,1.8
		c0.1,0.5,0.2,1.4,0.2,2.8l8.2-6.8c1.8,1.4,3,2.6,3.5,3.5s0.9,2.1,1,3.6l7.6-7.1l4.5,4.2L394.1,214.9z"/>
	<linearGradient id="XMLID_85_" gradientUnits="userSpaceOnUse" x1="399.0273" y1="227.8975" x2="418.332" y2="227.8975">
		<stop  offset="0" style="stop-color:#3C2415"/>
		<stop  offset="1" style="stop-color:#F1F2F2"/>
	</linearGradient>
	<linearGradient id="XMLID_86_" gradientUnits="userSpaceOnUse" x1="398.5273" y1="227.8779" x2="419.0704" y2="227.8779">
		<stop  offset="0" style="stop-color:#3C2415"/>
		<stop  offset="1" style="stop-color:#F1F2F2"/>
	</linearGradient>
	<path id="XMLID_30_" class="st16" d="M410.6,213.3l7.7,9l-12.3,8.6v5l6.3,2.5l4.3-2.9l0.6,0.8l-8.8,6.2c-1.8-1-3.3-1.7-4.5-2.1
		c-1.2-0.4-2.8-0.9-5-1.3v-0.7c0.6-0.4,1-0.8,1.2-1.4c0.2-0.5,0.3-1.7,0.3-3.5v-15.6c1.7-0.6,3.1-1.2,4.3-1.7
		C405.7,215.8,407.6,214.9,410.6,213.3z M406.5,216.5l-0.4,0.2v12.4l7.2-5L406.5,216.5z"/>
	<linearGradient id="XMLID_87_" gradientUnits="userSpaceOnUse" x1="420.2188" y1="227.8975" x2="446.168" y2="227.8975">
		<stop  offset="0" style="stop-color:#3C2415"/>
		<stop  offset="1" style="stop-color:#F1F2F2"/>
	</linearGradient>
	<linearGradient id="XMLID_88_" gradientUnits="userSpaceOnUse" x1="419.5235" y1="227.8773" x2="446.8647" y2="227.8773">
		<stop  offset="0" style="stop-color:#3C2415"/>
		<stop  offset="1" style="stop-color:#F1F2F2"/>
	</linearGradient>
	<path id="XMLID_33_" class="st17" d="M438,213.3l3.7,4.1l2.7-2.6l0.8,0.7c-1.3,1.2-2.1,2.1-2.3,2.7c-0.4,0.8-0.6,1.9-0.6,3.3v13
		c0,1.2,0.2,2.1,0.6,2.7c0.2,0.4,0.5,0.6,0.8,0.6c0.3,0,0.9-0.4,1.8-1.1l0.7,0.8l-5.9,4.8c-1.5-1.1-2.5-2.1-2.9-3
		c-0.4-0.9-0.6-2.3-0.6-4.3v-15l-2.4-2.6l-4.7,3.7v15.2l2.1,2l-4.8,3.9l-4.9-3.9l2.1-2v-14c0-2-0.2-3.3-0.6-4
		c-0.3-0.5-0.6-0.7-0.9-0.7c-0.4,0-0.9,0.4-1.6,1.1l-0.7-0.8l5.8-4.8c1.6,1.2,2.6,2.1,3,2.8c0.4,0.7,0.6,1.7,0.6,2.9v1L438,213.3z"
		/>
</g>
</svg>
